<?xml version="1.0" encoding="UTF-8"?>
<svg xmlns="http://www.w3.org/2000/svg" xmlns:xlink="http://www.w3.org/1999/xlink" viewBox="0 0 1601.32 659.92">
  <defs>
    <style>
      .cls-1 {
        fill: #1d3265;
      }

      .cls-1, .cls-2, .cls-3 {
        stroke-width: 0px;
      }

      .cls-4 {
        fill: none;
      }

      .cls-4, .cls-5, .cls-6, .cls-7, .cls-8 {
        stroke: #fff;
        stroke-miterlimit: 10;
      }

      .cls-5 {
        fill: url(#linear-gradient);
      }

      .cls-6 {
        fill: url(#New_Gradient_Swatch_1-2);
      }

      .cls-7 {
        fill: url(#New_Gradient_Swatch_1-3);
      }

      .cls-3 {
        fill: url(#linear-gradient-2);
      }

      .cls-8 {
        fill: url(#New_Gradient_Swatch_1);
      }
    </style>
    <linearGradient id="New_Gradient_Swatch_1" data-name="New Gradient Swatch 1" x1="216.05" y1="138" x2="216.05" y2="412.95" gradientUnits="userSpaceOnUse">
      <stop offset=".24" stop-color="#0075be"/>
      <stop offset=".99" stop-color="#005b97"/>
    </linearGradient>
    <linearGradient id="New_Gradient_Swatch_1-2" data-name="New Gradient Swatch 1" x1="462.65" y1="139.85" x2="462.65" y2="411.1" xlink:href="#New_Gradient_Swatch_1"/>
    <linearGradient id="New_Gradient_Swatch_1-3" data-name="New Gradient Swatch 1" x1="703.79" y1="139.85" x2="703.79" y2="411.1" xlink:href="#New_Gradient_Swatch_1"/>
    <linearGradient id="linear-gradient" x1="927.37" y1="197.85" x2="1079.13" y2="349.61" gradientUnits="userSpaceOnUse">
      <stop offset="0" stop-color="#005b97"/>
      <stop offset=".09" stop-color="#045c95"/>
      <stop offset=".19" stop-color="#106091"/>
      <stop offset=".28" stop-color="#25688a"/>
      <stop offset=".38" stop-color="#427280"/>
      <stop offset=".48" stop-color="#677f74"/>
      <stop offset=".58" stop-color="#959064"/>
      <stop offset=".68" stop-color="#cba352"/>
      <stop offset=".7" stop-color="#d9a84e"/>
    </linearGradient>
    <linearGradient id="linear-gradient-2" x1="1403.26" y1="150.63" x2="1403.26" y2="409.11" gradientUnits="userSpaceOnUse">
      <stop offset=".24" stop-color="#d9a84e"/>
      <stop offset=".99" stop-color="#005b97"/>
    </linearGradient>
  </defs>
  <g id="Layer_2" data-name="Layer 2">
    <g>
      <path class="cls-2" d="M332.8,496.1v-3.42c15.96-.98,16.76-1.79,16.49-14.35l-.66-47.87h-.79l-48.29,64.91h-3.96l-44.46-63.28h-.53l-2.9,33.51c-.79,9.87-.79,14.92-.4,19.65.4,5.63,5.01,6.44,18.07,7.26v3.59h-46.31v-3.59c11.35-.65,15.17-2.36,16.76-7.09,1.06-4.16,2.24-9.3,3.83-22.1l2.9-23.97c1.71-15.49.53-16.15-17.15-17.21v-3.59h33.64l44.72,58.63,45.38-58.63h34.57v3.59c-17.28.9-18.47,1.3-17.81,13.13l1.85,43.05c.66,12.56,1.19,13.37,18.34,14.35v3.42h-53.3Z"/>
      <path class="cls-2" d="M457.74,497.48c-3.69,0-7.92-1.06-10.03-2.36-2.64-1.55-3.83-3.18-4.75-5.06-7.92,3.1-17.15,7.42-22.69,7.42-14.64,0-24.28-7.18-24.28-14.68,0-5.95,5.28-9.54,15.96-11.66,12.53-2.45,26.12-5.54,30.34-7.75v-2.12c0-8.56-6.33-13.13-15.7-13.13-3.43,0-6.33.82-8.31,2.12-2.51,1.55-4.22,4.24-5.94,8.07-1.19,2.12-3.3,2.94-6.33,2.94-3.83,0-8.97-2.45-8.97-5.3,0-1.79,2.51-3.26,6.33-4.89,5.67-2.53,19-7.09,29.95-8.4,6.2,0,11.87.9,16.36,3.02,7.26,3.75,9.37,8.73,9.37,15.09v21.45c0,5.3,3.43,7.09,6.99,7.09,2.24,0,4.88-.57,6.99-1.3l1.98,3.18-17.28,6.28ZM442.3,467.56c-3.96,1.22-11.87,3.51-15.96,4.65-7.65,2.04-11.87,4.4-11.87,8.81,0,6.28,7.65,9.05,13.46,9.05,4.62,0,10.95-1.79,14.38-3.91v-18.59Z"/>
      <path class="cls-2" d="M511.7,455.57c6.46-6.52,14.51-12.88,23.62-12.88,7.12,0,11.87,3.18,11.87,6.12,0,2.77-2.64,5.22-6.86,6.44-2.38.57-4.09.33-5.28-.33-3.03-1.71-5.28-2.45-8.58-2.45-5.01,0-10.95,3.51-15.17,9.87v21.28c0,7.83.92,8.56,16.23,9.3v3.18h-46.84v-3.18c11.87-.73,13.59-1.47,13.59-9.3v-24.71c0-7.58-1.06-8.07-12.01-9.05v-2.69c9.76-.98,19-2.36,29.03-4.89v13.29h.4Z"/>
      <path class="cls-2" d="M596.79,495.85c-3.56,1.22-6.6,1.63-8.31,1.63-13.06,0-20.32-4.57-20.32-14.19v-34.25h-13.32l-.92-1.39,5.41-3.59h8.84v-8.64l14.38-8.32,2.64.33v16.63h21.9c1.98,1.3,1.32,3.91-1.32,4.97h-20.58v30.09c0,9.62,6.73,11.25,11.61,11.25,4.62,0,8.97-1.14,11.87-2.04l1.71,3.26-13.59,4.24Z"/>
      <path class="cls-2" d="M618.69,496.1v-3.18c12.27-.73,13.59-1.79,13.59-10.11v-23.4c0-7.75-.92-8.48-12.01-9.54v-2.85c10.29-1.06,20.32-2.45,29.16-4.57v40.36c0,8.4,1.19,9.21,13.72,10.11v3.18h-44.46ZM632.02,435.92c3.43-5.06,11.35-17.04,12.67-19.08,1.72-.65,14.38-1.47,16.76-1.14l.66,1.14-25.07,20.71-5.01-1.63Z"/>
      <path class="cls-2" d="M728.59,496.1v-3.18c11.21-.73,12.53-1.71,12.53-10.11v-19.41c0-8.32-5.41-13.29-17.42-13.29-7.39,0-14.64,2.85-20.58,5.87v27.56c0,8.15,1.06,8.64,12.4,9.38v3.18h-43.54v-3.18c13.06-.98,14.12-1.55,14.12-9.54v-23.97c0-7.75-1.32-8.24-11.61-9.38v-3.02c9.37-.9,19.53-2.45,28.63-4.73v9.62c3.96-1.79,8.18-3.67,13.19-5.71,5.54-2.2,10.42-3.51,16.23-3.51,15.57,0,25.46,6.77,25.46,18.59v22.26c0,8.15,1.19,8.48,12.53,9.38v3.18h-41.95Z"/>
      <path class="cls-2" d="M853,485.5c-12.67,9.87-26.78,11.99-33.11,11.99-24.14,0-38.39-11.99-38.39-25.28,0-7.91,4.62-15.09,12.53-20.39,8.44-5.71,19.13-9.13,29.55-9.13h.13c16.76,0,30.08,8.89,30.08,18.35,0,2.28-1.06,3.34-4.62,3.83-3.56.33-28.1,1.55-50.79,2.04.4,15.41,15.04,21.94,28.63,21.94,8.05,0,15.57-1.88,22.69-5.95l3.3,2.61ZM818.96,447.17c-8.44,0-16.89,4.65-19.66,14.6,10.42,0,20.85,0,31.8-.24,3.43-.08,4.62-.73,4.62-2.28,0-6.28-6.33-12.07-16.62-12.07h-.13Z"/>
      <path class="cls-2" d="M942.19,480.68c-2.9,5.06-6.07,10.93-9.24,15.41h-66.1l-1.45-1.88c16.89-15.09,32.59-29.93,48.81-45.91h-16.62c-14.12,0-17.28,1.79-22.96,8.56l-2.9,3.51-5.01-1.3c2.51-5.06,5.41-12.48,7.12-17.61h3.96c1.19,1.88,3.96,2.61,11.21,2.61h46.04l1.45,1.79c-15.96,15.17-31.53,30.17-47.5,45.99h18.6c14.78,0,19.26-2.45,26.91-9.87l2.64-2.85,5.01,1.55Z"/>
      <path class="cls-2" d="M1089.16,437.06c-1.72-4.73-3.04-7.34-5.94-9.7-3.43-3.34-7.65-4.4-22.3-4.4h-14.38c-6.2,0-6.73.33-6.73,3.91v27.89h19.79c18.07,0,19.13-1.14,21.64-8.89h5.8v23.48h-5.94c-2.37-8.32-3.43-9.62-21.5-9.62h-19.79v20.79c0,10.6,1.72,11.33,19.79,12.15v3.42h-55.54v-3.42c15.7-.73,17.41-1.55,17.41-12.15v-46.56c0-10.52-1.72-11.17-16.89-11.82v-3.59h88.39c.26,4.4,1.19,11.99,2.11,17.94l-5.94.57Z"/>
      <path class="cls-2" d="M1105.12,496.1v-3.18c12.27-.73,13.72-1.47,13.72-9.79v-23.97c0-7.5-.66-8.07-12.27-9.3v-2.85c10.55-1.06,20.45-2.45,29.29-4.57v40.69c0,8.24,1.32,8.89,13.85,9.79v3.18h-44.59ZM1115.41,426.13c0-3.83,5.01-6.69,10.82-6.69s10.29,2.85,10.29,6.69c0,3.42-4.48,6.44-10.55,6.44-5.54,0-10.55-3.02-10.55-6.44Z"/>
      <path class="cls-2" d="M1156.97,496.1v-3.18c12.27-.9,13.98-1.55,13.98-9.54v-55.94c0-8.07-1.32-8.32-13.46-9.05v-2.94c10.55-.73,23.22-2.77,30.34-4.16v72.08c0,8.07,1.72,8.81,14.51,9.54v3.18h-45.38Z"/>
      <path class="cls-2" d="M1256.31,442.69c25.07,0,43.54,11.99,43.54,26.42,0,19.24-23.75,28.38-43.67,28.38-28.1,0-44.46-13.05-44.46-26.18,0-19.49,25.86-28.62,44.46-28.62h.13ZM1253.8,446.68c-11.35,0-21.9,7.09-21.9,20.55,0,15.09,10.55,26.09,26.39,26.09,11.35,0,21.5-4.73,21.5-21.45,0-14.27-9.24-25.2-25.73-25.2h-.26Z"/>
      <path class="cls-2" d="M1388.24,480.68c-2.9,5.06-6.07,10.93-9.24,15.41h-66.1l-1.45-1.88c16.89-15.09,32.59-29.93,48.81-45.91h-16.62c-14.12,0-17.28,1.79-22.96,8.56l-2.9,3.51-5.01-1.3c2.51-5.06,5.41-12.48,7.12-17.61h3.96c1.19,1.88,3.96,2.61,11.21,2.61h46.04l1.45,1.79c-15.96,15.17-31.53,30.17-47.5,45.99h18.6c14.78,0,19.26-2.45,26.91-9.87l2.64-2.85,5.01,1.55Z"/>
      <path class="cls-2" d="M248.17,540.45c-13.72.98-16.62,3.1-23.35,8.89-5.28,4.48-10.16,9.38-17.02,15.57,9.24,5.22,26.25,16.88,32.59,24.14l-1.06,1.14c-12.4-.49-23.35-3.18-25.73-4.73-2.51-1.63-10.69-7.09-17.15-11.25-14.25,11.25-27.05,15.49-41.16,15.49-25.33,0-39.58-11.33-39.58-21.85s12.14-15.33,29.29-22.67c-8.84-4.97-14.12-9.95-14.12-16.63,0-10.68,15.44-19.08,33.11-19.08,16.62,0,29.95,7.01,29.95,16.63,0,4.97-3.83,8.15-8.31,10.44-3.56,1.88-8.44,4-15.96,7.09,6.6,3.34,20.45,10.44,33.11,18.18,4.62-4.16,8.05-8.15,11.74-13.29,3.56-5.38,1.85-6.93-12.14-8.07l.13-3.43h45.65v3.43ZM161.23,581.05c12.4,0,24.28-5.14,30.34-10.19-10.95-7.18-23.35-14.27-41.43-22.91-11.87,5.06-16.36,10.52-16.36,16.15,0,11.25,14.25,16.96,27.31,16.96h.13ZM162.02,513.62c-8.97,0-15.96,4.97-15.7,11.82,0,6.2,5.94,10.27,18.07,15.82,8.84-3.91,13.98-8.64,13.98-15.09,0-6.85-6.73-12.56-16.1-12.56h-.26Z"/>
      <path class="cls-2" d="M384.72,588.07v-3.43c12.27-1.06,13.98-2.12,11.35-6.93-2.77-4.73-6.33-10.68-10.55-17.53h-42.35c-3.3,5.46-5.94,10.11-8.44,14.84-4.22,7.26-2.64,8.64,12.27,9.62v3.43h-43.54v-3.43c12.8-1.22,15.57-2.04,22.56-12.64l41.43-62.22,6.86-1.06c12.67,21.12,25.33,42.32,38.39,63.28,6.33,10.52,9.1,11.82,21.9,12.64v3.43h-49.87ZM365.32,525.11h-.4c-6.33,9.87-12.53,20.06-18.47,29.68h36.15l-17.28-29.68Z"/>
      <path class="cls-2" d="M493.3,550.56c-3.83-7.01-10.69-11.99-20.32-11.99-7.12,0-12.14,3.26-12.14,7.91,0,4.89,7.39,7.75,16.23,9.87,14.91,3.67,25.07,7.99,25.07,16.39,0,11.17-16.62,16.72-32.85,16.72-10.16,0-19.39-2.2-22.69-3.91-1.32-1.55-3.17-9.95-3.43-14.68l5.41-.49c3.69,7.99,12.53,15.08,24.14,15.08,7.12,0,13.46-3.34,13.46-8.07s-5.15-7.58-15.17-10.36c-11.35-3.18-24.93-7.26-24.93-16.72,0-8.48,11.87-15.66,30.34-15.66,8.44,0,13.72,1.06,17.68,2.12,1.72,2.61,4.09,9.95,4.49,12.8l-5.28.98Z"/>
      <path class="cls-2" d="M560.84,534.66c25.07,0,43.54,11.99,43.54,26.42,0,19.24-23.75,28.38-43.67,28.38-28.1,0-44.46-13.05-44.46-26.18,0-19.49,25.86-28.62,44.46-28.62h.13ZM558.34,538.65c-11.35,0-21.9,7.09-21.9,20.55,0,15.09,10.55,26.09,26.39,26.09,11.35,0,21.51-4.73,21.51-21.45,0-14.27-9.24-25.2-25.73-25.2h-.26Z"/>
      <path class="cls-2" d="M694.49,577.06c-8.84,7.09-22.16,12.39-33.64,12.39-25.59,0-40.37-12.23-40.37-24.87,0-9.05,6.73-17.12,19.92-23.16,10.82-4.89,22.69-6.77,30.21-6.77h.26c8.05,0,14.51,1.47,17.68,3.18,2.64,1.31,3.17,2.37,3.17,3.67,0,2.77-4.35,5.46-6.86,5.46-1.19,0-2.11-.33-3.83-1.39-6.33-3.51-13.06-5.14-20.05-5.14-12.14,0-23.22,6.03-23.22,18.67,0,16.39,19.26,21.69,29.82,21.69,8.18,0,14.78-1.39,23.62-6.44l3.3,2.69Z"/>
      <path class="cls-2" d="M703.19,588.07v-3.18c12.27-.73,13.72-1.47,13.72-9.78v-23.97c0-7.5-.66-8.07-12.27-9.3v-2.85c10.55-1.06,20.45-2.45,29.29-4.57v40.69c0,8.24,1.32,8.89,13.85,9.78v3.18h-44.59ZM713.49,518.1c0-3.83,5.01-6.69,10.82-6.69s10.29,2.85,10.29,6.69c0,3.42-4.49,6.44-10.55,6.44-5.54,0-10.55-3.02-10.55-6.44Z"/>
      <path class="cls-2" d="M820.48,589.45c-3.69,0-7.92-1.06-10.03-2.36-2.64-1.55-3.83-3.18-4.75-5.06-7.92,3.1-17.15,7.42-22.69,7.42-14.64,0-24.28-7.18-24.28-14.68,0-5.95,5.28-9.54,15.96-11.66,12.53-2.45,26.12-5.54,30.34-7.75v-2.12c0-8.56-6.33-13.13-15.7-13.13-3.43,0-6.33.82-8.31,2.12-2.51,1.55-4.22,4.24-5.94,8.07-1.19,2.12-3.3,2.93-6.33,2.93-3.83,0-8.97-2.45-8.97-5.3,0-1.79,2.51-3.26,6.33-4.89,5.67-2.53,19-7.09,29.95-8.4,6.2,0,11.87.9,16.36,3.02,7.26,3.75,9.37,8.73,9.37,15.09v21.45c0,5.3,3.43,7.1,6.99,7.1,2.24,0,4.88-.57,6.99-1.31l1.98,3.18-17.28,6.28ZM805.05,559.53c-3.96,1.22-11.87,3.51-15.96,4.65-7.65,2.04-11.87,4.4-11.87,8.81,0,6.28,7.65,9.05,13.46,9.05,4.62,0,10.95-1.79,14.38-3.91v-18.59Z"/>
      <path class="cls-2" d="M941.86,584.97c-4.22.49-19.53,2.04-31.93,4.49v-7.66l-11.61,4.24c-7.78,2.77-12.93,3.42-15.04,3.42-16.36,0-37.34-8.64-37.34-25.36s24.01-29.44,51.32-29.44c2.77,0,7.92.33,12.67,1.3v-16.8c0-7.75-1.32-8.07-15.17-8.64v-3.1c10.95-.82,24.41-2.61,32.19-4.16v70.7c0,6.52,1.45,7.1,9.37,7.58l5.54.33v3.1ZM909.93,545.42c-4.75-4.16-12.4-6.2-19.92-6.2-8.31,0-24.67,4.32-24.67,21.61,0,14.27,14.64,20.79,26.78,20.79,6.46,0,13.06-1.79,17.81-3.75v-32.45Z"/>
      <path class="cls-2" d="M995.29,534.66c25.07,0,43.54,11.99,43.54,26.42,0,19.24-23.75,28.38-43.67,28.38-28.1,0-44.46-13.05-44.46-26.18,0-19.49,25.86-28.62,44.46-28.62h.13ZM992.78,538.65c-11.35,0-21.9,7.09-21.9,20.55,0,15.09,10.55,26.09,26.39,26.09,11.35,0,21.5-4.73,21.5-21.45,0-14.27-9.24-25.2-25.73-25.2h-.26Z"/>
      <path class="cls-2" d="M1103.87,550.56c-3.83-7.01-10.69-11.99-20.32-11.99-7.12,0-12.14,3.26-12.14,7.91,0,4.89,7.39,7.75,16.23,9.87,14.91,3.67,25.07,7.99,25.07,16.39,0,11.17-16.62,16.72-32.85,16.72-10.16,0-19.39-2.2-22.69-3.91-1.32-1.55-3.17-9.95-3.43-14.68l5.41-.49c3.69,7.99,12.53,15.08,24.14,15.08,7.12,0,13.46-3.34,13.46-8.07s-5.15-7.58-15.17-10.36c-11.35-3.18-24.93-7.26-24.93-16.72,0-8.48,11.87-15.66,30.34-15.66,8.44,0,13.72,1.06,17.68,2.12,1.72,2.61,4.09,9.95,4.49,12.8l-5.28.98Z"/>
      <path class="cls-2" d="M1246.88,529.19c-3.43-7.67-9.5-16.31-26.12-16.31-14.78,0-21.77,6.44-21.77,12.96,0,8.4,9.1,12.48,25.2,17.29,16.76,5.06,34.17,10.68,34.17,23.81s-17.68,22.99-44.59,22.99c-8.18,0-14.78-.9-19.79-1.96-5.01-.98-7.78-1.96-9.76-2.53-1.32-2.36-4.22-13.21-5.41-19l5.94-1.06c3.3,7.58,12.93,20.06,33.11,20.06,14.38,0,22.82-5.46,22.82-14.02s-10.55-12.72-25.59-17.61c-13.72-4.24-32.59-10.19-32.59-23.32,0-11.91,15.57-21.77,41.29-21.77,9.37,0,18.21,1.39,25.59,2.85.79,4.24,1.72,9.13,3.43,16.96l-5.94.65Z"/>
      <path class="cls-2" d="M1350.84,588.07v-3.43c12.27-1.06,13.98-2.12,11.35-6.93-2.77-4.73-6.33-10.68-10.55-17.53h-42.35c-3.3,5.46-5.94,10.11-8.44,14.84-4.22,7.26-2.64,8.64,12.27,9.62v3.43h-43.54v-3.43c12.8-1.22,15.57-2.04,22.56-12.64l41.43-62.22,6.86-1.06c12.67,21.12,25.33,42.32,38.39,63.28,6.33,10.52,9.1,11.82,21.9,12.64v3.43h-49.87ZM1331.45,525.11h-.4c-6.33,9.87-12.53,20.06-18.47,29.68h36.15l-17.28-29.68Z"/>
      <path class="cls-2" d="M1479.73,529.19c-3.43-7.67-9.5-16.31-26.12-16.31-14.78,0-21.77,6.44-21.77,12.96,0,8.4,9.1,12.48,25.2,17.29,16.76,5.06,34.17,10.68,34.17,23.81s-17.68,22.99-44.59,22.99c-8.18,0-14.78-.9-19.79-1.96-5.01-.98-7.78-1.96-9.76-2.53-1.32-2.36-4.22-13.21-5.41-19l5.94-1.06c3.3,7.58,12.93,20.06,33.11,20.06,14.38,0,22.82-5.46,22.82-14.02s-10.55-12.72-25.59-17.61c-13.72-4.24-32.59-10.19-32.59-23.32,0-11.91,15.57-21.77,41.29-21.77,9.37,0,18.21,1.39,25.59,2.85.79,4.24,1.72,9.13,3.43,16.96l-5.94.65Z"/>
    </g>
    <g>
      <path class="cls-1" d="M332.8,496.1v-3.42c15.96-.98,16.76-1.79,16.49-14.35l-.66-47.87h-.79l-48.29,64.91h-3.96l-44.46-63.28h-.53l-2.9,33.51c-.79,9.87-.79,14.92-.4,19.65.4,5.63,5.01,6.44,18.07,7.26v3.59h-46.31v-3.59c11.35-.65,15.17-2.36,16.76-7.09,1.06-4.16,2.24-9.3,3.83-22.1l2.9-23.97c1.71-15.49.53-16.15-17.15-17.21v-3.59h33.64l44.72,58.63,45.38-58.63h34.57v3.59c-17.28.9-18.47,1.3-17.81,13.13l1.85,43.05c.66,12.56,1.19,13.37,18.34,14.35v3.42h-53.3Z"/>
      <path class="cls-1" d="M457.74,497.48c-3.69,0-7.92-1.06-10.03-2.36-2.64-1.55-3.83-3.18-4.75-5.06-7.92,3.1-17.15,7.42-22.69,7.42-14.64,0-24.28-7.18-24.28-14.68,0-5.95,5.28-9.54,15.96-11.66,12.53-2.45,26.12-5.54,30.34-7.75v-2.12c0-8.56-6.33-13.13-15.7-13.13-3.43,0-6.33.82-8.31,2.12-2.51,1.55-4.22,4.24-5.94,8.07-1.19,2.12-3.3,2.94-6.33,2.94-3.83,0-8.97-2.45-8.97-5.3,0-1.79,2.51-3.26,6.33-4.89,5.67-2.53,19-7.09,29.95-8.4,6.2,0,11.87.9,16.36,3.02,7.26,3.75,9.37,8.73,9.37,15.09v21.45c0,5.3,3.43,7.09,6.99,7.09,2.24,0,4.88-.57,6.99-1.3l1.98,3.18-17.28,6.28ZM442.3,467.56c-3.96,1.22-11.87,3.51-15.96,4.65-7.65,2.04-11.87,4.4-11.87,8.81,0,6.28,7.65,9.05,13.46,9.05,4.62,0,10.95-1.79,14.38-3.91v-18.59Z"/>
      <path class="cls-1" d="M511.7,455.57c6.46-6.52,14.51-12.88,23.62-12.88,7.12,0,11.87,3.18,11.87,6.12,0,2.77-2.64,5.22-6.86,6.44-2.38.57-4.09.33-5.28-.33-3.03-1.71-5.28-2.45-8.58-2.45-5.01,0-10.95,3.51-15.17,9.87v21.28c0,7.83.92,8.56,16.23,9.3v3.18h-46.84v-3.18c11.87-.73,13.59-1.47,13.59-9.3v-24.71c0-7.58-1.06-8.07-12.01-9.05v-2.69c9.76-.98,19-2.36,29.03-4.89v13.29h.4Z"/>
      <path class="cls-1" d="M596.79,495.85c-3.56,1.22-6.6,1.63-8.31,1.63-13.06,0-20.32-4.57-20.32-14.19v-34.25h-13.32l-.92-1.39,5.41-3.59h8.84v-8.64l14.38-8.32,2.64.33v16.63h21.9c1.98,1.3,1.32,3.91-1.32,4.97h-20.58v30.09c0,9.62,6.73,11.25,11.61,11.25,4.62,0,8.97-1.14,11.87-2.04l1.71,3.26-13.59,4.24Z"/>
      <path class="cls-1" d="M618.69,496.1v-3.18c12.27-.73,13.59-1.79,13.59-10.11v-23.4c0-7.75-.92-8.48-12.01-9.54v-2.85c10.29-1.06,20.32-2.45,29.16-4.57v40.36c0,8.4,1.19,9.21,13.72,10.11v3.18h-44.46ZM632.02,435.92c3.43-5.06,11.35-17.04,12.67-19.08,1.72-.65,14.38-1.47,16.76-1.14l.66,1.14-25.07,20.71-5.01-1.63Z"/>
      <path class="cls-1" d="M728.59,496.1v-3.18c11.21-.73,12.53-1.71,12.53-10.11v-19.41c0-8.32-5.41-13.29-17.42-13.29-7.39,0-14.64,2.85-20.58,5.87v27.56c0,8.15,1.06,8.64,12.4,9.38v3.18h-43.54v-3.18c13.06-.98,14.12-1.55,14.12-9.54v-23.97c0-7.75-1.32-8.24-11.61-9.38v-3.02c9.37-.9,19.53-2.45,28.63-4.73v9.62c3.96-1.79,8.18-3.67,13.19-5.71,5.54-2.2,10.42-3.51,16.23-3.51,15.57,0,25.46,6.77,25.46,18.59v22.26c0,8.15,1.19,8.48,12.53,9.38v3.18h-41.95Z"/>
      <path class="cls-1" d="M853,485.5c-12.67,9.87-26.78,11.99-33.11,11.99-24.14,0-38.39-11.99-38.39-25.28,0-7.91,4.62-15.09,12.53-20.39,8.44-5.71,19.13-9.13,29.55-9.13h.13c16.76,0,30.08,8.89,30.08,18.35,0,2.28-1.06,3.34-4.62,3.83-3.56.33-28.1,1.55-50.79,2.04.4,15.41,15.04,21.94,28.63,21.94,8.05,0,15.57-1.88,22.69-5.95l3.3,2.61ZM818.96,447.17c-8.44,0-16.89,4.65-19.66,14.6,10.42,0,20.85,0,31.8-.24,3.43-.08,4.62-.73,4.62-2.28,0-6.28-6.33-12.07-16.62-12.07h-.13Z"/>
      <path class="cls-1" d="M942.19,480.68c-2.9,5.06-6.07,10.93-9.24,15.41h-66.1l-1.45-1.88c16.89-15.09,32.59-29.93,48.81-45.91h-16.62c-14.12,0-17.28,1.79-22.96,8.56l-2.9,3.51-5.01-1.3c2.51-5.06,5.41-12.48,7.12-17.61h3.96c1.19,1.88,3.96,2.61,11.21,2.61h46.04l1.45,1.79c-15.96,15.17-31.53,30.17-47.5,45.99h18.6c14.78,0,19.26-2.45,26.91-9.87l2.64-2.85,5.01,1.55Z"/>
      <path class="cls-1" d="M1089.16,437.06c-1.72-4.73-3.04-7.34-5.94-9.7-3.43-3.34-7.65-4.4-22.3-4.4h-14.38c-6.2,0-6.73.33-6.73,3.91v27.89h19.79c18.07,0,19.13-1.14,21.64-8.89h5.8v23.48h-5.94c-2.37-8.32-3.43-9.62-21.5-9.62h-19.79v20.79c0,10.6,1.72,11.33,19.79,12.15v3.42h-55.54v-3.42c15.7-.73,17.41-1.55,17.41-12.15v-46.56c0-10.52-1.72-11.17-16.89-11.82v-3.59h88.39c.26,4.4,1.19,11.99,2.11,17.94l-5.94.57Z"/>
      <path class="cls-1" d="M1105.12,496.1v-3.18c12.27-.73,13.72-1.47,13.72-9.79v-23.97c0-7.5-.66-8.07-12.27-9.3v-2.85c10.55-1.06,20.45-2.45,29.29-4.57v40.69c0,8.24,1.32,8.89,13.85,9.79v3.18h-44.59ZM1115.41,426.13c0-3.83,5.01-6.69,10.82-6.69s10.29,2.85,10.29,6.69c0,3.42-4.48,6.44-10.55,6.44-5.54,0-10.55-3.02-10.55-6.44Z"/>
      <path class="cls-1" d="M1156.97,496.1v-3.18c12.27-.9,13.98-1.55,13.98-9.54v-55.94c0-8.07-1.32-8.32-13.46-9.05v-2.94c10.55-.73,23.22-2.77,30.34-4.16v72.08c0,8.07,1.72,8.81,14.51,9.54v3.18h-45.38Z"/>
      <path class="cls-1" d="M1256.31,442.69c25.07,0,43.54,11.99,43.54,26.42,0,19.24-23.75,28.38-43.67,28.38-28.1,0-44.46-13.05-44.46-26.18,0-19.49,25.86-28.62,44.46-28.62h.13ZM1253.8,446.68c-11.35,0-21.9,7.09-21.9,20.55,0,15.09,10.55,26.09,26.39,26.09,11.35,0,21.5-4.73,21.5-21.45,0-14.27-9.24-25.2-25.73-25.2h-.26Z"/>
      <path class="cls-1" d="M1388.24,480.68c-2.9,5.06-6.07,10.93-9.24,15.41h-66.1l-1.45-1.88c16.89-15.09,32.59-29.93,48.81-45.91h-16.62c-14.12,0-17.28,1.79-22.96,8.56l-2.9,3.51-5.01-1.3c2.51-5.06,5.41-12.48,7.12-17.61h3.96c1.19,1.88,3.96,2.61,11.21,2.61h46.04l1.45,1.79c-15.96,15.17-31.53,30.17-47.5,45.99h18.6c14.78,0,19.26-2.45,26.91-9.87l2.64-2.85,5.01,1.55Z"/>
      <path class="cls-1" d="M248.17,540.45c-13.72.98-16.62,3.1-23.35,8.89-5.28,4.48-10.16,9.38-17.02,15.57,9.24,5.22,26.25,16.88,32.59,24.14l-1.06,1.14c-12.4-.49-23.35-3.18-25.73-4.73-2.51-1.63-10.69-7.09-17.15-11.25-14.25,11.25-27.05,15.49-41.16,15.49-25.33,0-39.58-11.33-39.58-21.85s12.14-15.33,29.29-22.67c-8.84-4.97-14.12-9.95-14.12-16.63,0-10.68,15.44-19.08,33.11-19.08,16.62,0,29.95,7.01,29.95,16.63,0,4.97-3.83,8.15-8.31,10.44-3.56,1.88-8.44,4-15.96,7.09,6.6,3.34,20.45,10.44,33.11,18.18,4.62-4.16,8.05-8.15,11.74-13.29,3.56-5.38,1.85-6.93-12.14-8.07l.13-3.43h45.65v3.43ZM161.23,581.05c12.4,0,24.28-5.14,30.34-10.19-10.95-7.18-23.35-14.27-41.43-22.91-11.87,5.06-16.36,10.52-16.36,16.15,0,11.25,14.25,16.96,27.31,16.96h.13ZM162.02,513.62c-8.97,0-15.96,4.97-15.7,11.82,0,6.2,5.94,10.27,18.07,15.82,8.84-3.91,13.98-8.64,13.98-15.09,0-6.85-6.73-12.56-16.1-12.56h-.26Z"/>
      <path class="cls-1" d="M384.72,588.07v-3.43c12.27-1.06,13.98-2.12,11.35-6.93-2.77-4.73-6.33-10.68-10.55-17.53h-42.35c-3.3,5.46-5.94,10.11-8.44,14.84-4.22,7.26-2.64,8.64,12.27,9.62v3.43h-43.54v-3.43c12.8-1.22,15.57-2.04,22.56-12.64l41.43-62.22,6.86-1.06c12.67,21.12,25.33,42.32,38.39,63.28,6.33,10.52,9.1,11.82,21.9,12.64v3.43h-49.87ZM365.32,525.11h-.4c-6.33,9.87-12.53,20.06-18.47,29.68h36.15l-17.28-29.68Z"/>
      <path class="cls-1" d="M493.3,550.56c-3.83-7.01-10.69-11.99-20.32-11.99-7.12,0-12.14,3.26-12.14,7.91,0,4.89,7.39,7.75,16.23,9.87,14.91,3.67,25.07,7.99,25.07,16.39,0,11.17-16.62,16.72-32.85,16.72-10.16,0-19.39-2.2-22.69-3.91-1.32-1.55-3.17-9.95-3.43-14.68l5.41-.49c3.69,7.99,12.53,15.08,24.14,15.08,7.12,0,13.46-3.34,13.46-8.07s-5.15-7.58-15.17-10.36c-11.35-3.18-24.93-7.26-24.93-16.72,0-8.48,11.87-15.66,30.34-15.66,8.44,0,13.72,1.06,17.68,2.12,1.72,2.61,4.09,9.95,4.49,12.8l-5.28.98Z"/>
      <path class="cls-1" d="M560.84,534.66c25.07,0,43.54,11.99,43.54,26.42,0,19.24-23.75,28.38-43.67,28.38-28.1,0-44.46-13.05-44.46-26.18,0-19.49,25.86-28.62,44.46-28.62h.13ZM558.34,538.65c-11.35,0-21.9,7.09-21.9,20.55,0,15.09,10.55,26.09,26.39,26.09,11.35,0,21.51-4.73,21.51-21.45,0-14.27-9.24-25.2-25.73-25.2h-.26Z"/>
      <path class="cls-1" d="M694.49,577.06c-8.84,7.09-22.16,12.39-33.64,12.39-25.59,0-40.37-12.23-40.37-24.87,0-9.05,6.73-17.12,19.92-23.16,10.82-4.89,22.69-6.77,30.21-6.77h.26c8.05,0,14.51,1.47,17.68,3.18,2.64,1.31,3.17,2.37,3.17,3.67,0,2.77-4.35,5.46-6.86,5.46-1.19,0-2.11-.33-3.83-1.39-6.33-3.51-13.06-5.14-20.05-5.14-12.14,0-23.22,6.03-23.22,18.67,0,16.39,19.26,21.69,29.82,21.69,8.18,0,14.78-1.39,23.62-6.44l3.3,2.69Z"/>
      <path class="cls-1" d="M703.19,588.07v-3.18c12.27-.73,13.72-1.47,13.72-9.78v-23.97c0-7.5-.66-8.07-12.27-9.3v-2.85c10.55-1.06,20.45-2.45,29.29-4.57v40.69c0,8.24,1.32,8.89,13.85,9.78v3.18h-44.59ZM713.49,518.1c0-3.83,5.01-6.69,10.82-6.69s10.29,2.85,10.29,6.69c0,3.42-4.49,6.44-10.55,6.44-5.54,0-10.55-3.02-10.55-6.44Z"/>
      <path class="cls-1" d="M820.48,589.45c-3.69,0-7.92-1.06-10.03-2.36-2.64-1.55-3.83-3.18-4.75-5.06-7.92,3.1-17.15,7.42-22.69,7.42-14.64,0-24.28-7.18-24.28-14.68,0-5.95,5.28-9.54,15.96-11.66,12.53-2.45,26.12-5.54,30.34-7.75v-2.12c0-8.56-6.33-13.13-15.7-13.13-3.43,0-6.33.82-8.31,2.12-2.51,1.55-4.22,4.24-5.94,8.07-1.19,2.12-3.3,2.93-6.33,2.93-3.83,0-8.97-2.45-8.97-5.3,0-1.79,2.51-3.26,6.33-4.89,5.67-2.53,19-7.09,29.95-8.4,6.2,0,11.87.9,16.36,3.02,7.26,3.75,9.37,8.73,9.37,15.09v21.45c0,5.3,3.43,7.1,6.99,7.1,2.24,0,4.88-.57,6.99-1.31l1.98,3.18-17.28,6.28ZM805.05,559.53c-3.96,1.22-11.87,3.51-15.96,4.65-7.65,2.04-11.87,4.4-11.87,8.81,0,6.28,7.65,9.05,13.46,9.05,4.62,0,10.95-1.79,14.38-3.91v-18.59Z"/>
      <path class="cls-1" d="M941.86,584.97c-4.22.49-19.53,2.04-31.93,4.49v-7.66l-11.61,4.24c-7.78,2.77-12.93,3.42-15.04,3.42-16.36,0-37.34-8.64-37.34-25.36s24.01-29.44,51.32-29.44c2.77,0,7.92.33,12.67,1.3v-16.8c0-7.75-1.32-8.07-15.17-8.64v-3.1c10.95-.82,24.41-2.61,32.19-4.16v70.7c0,6.52,1.45,7.1,9.37,7.58l5.54.33v3.1ZM909.93,545.42c-4.75-4.16-12.4-6.2-19.92-6.2-8.31,0-24.67,4.32-24.67,21.61,0,14.27,14.64,20.79,26.78,20.79,6.46,0,13.06-1.79,17.81-3.75v-32.45Z"/>
      <path class="cls-1" d="M995.29,534.66c25.07,0,43.54,11.99,43.54,26.42,0,19.24-23.75,28.38-43.67,28.38-28.1,0-44.46-13.05-44.46-26.18,0-19.49,25.86-28.62,44.46-28.62h.13ZM992.78,538.65c-11.35,0-21.9,7.09-21.9,20.55,0,15.09,10.55,26.09,26.39,26.09,11.35,0,21.5-4.73,21.5-21.45,0-14.27-9.24-25.2-25.73-25.2h-.26Z"/>
      <path class="cls-1" d="M1103.87,550.56c-3.83-7.01-10.69-11.99-20.32-11.99-7.12,0-12.14,3.26-12.14,7.91,0,4.89,7.39,7.75,16.23,9.87,14.91,3.67,25.07,7.99,25.07,16.39,0,11.17-16.62,16.72-32.85,16.72-10.16,0-19.39-2.2-22.69-3.91-1.32-1.55-3.17-9.95-3.43-14.68l5.41-.49c3.69,7.99,12.53,15.08,24.14,15.08,7.12,0,13.46-3.34,13.46-8.07s-5.15-7.58-15.17-10.36c-11.35-3.18-24.93-7.26-24.93-16.72,0-8.48,11.87-15.66,30.34-15.66,8.44,0,13.72,1.06,17.68,2.12,1.72,2.61,4.09,9.95,4.49,12.8l-5.28.98Z"/>
      <path class="cls-1" d="M1246.88,529.19c-3.43-7.67-9.5-16.31-26.12-16.31-14.78,0-21.77,6.44-21.77,12.96,0,8.4,9.1,12.48,25.2,17.29,16.76,5.06,34.17,10.68,34.17,23.81s-17.68,22.99-44.59,22.99c-8.18,0-14.78-.9-19.79-1.96-5.01-.98-7.78-1.96-9.76-2.53-1.32-2.36-4.22-13.21-5.41-19l5.94-1.06c3.3,7.58,12.93,20.06,33.11,20.06,14.38,0,22.82-5.46,22.82-14.02s-10.55-12.72-25.59-17.61c-13.72-4.24-32.59-10.19-32.59-23.32,0-11.91,15.57-21.77,41.29-21.77,9.37,0,18.21,1.39,25.59,2.85.79,4.24,1.72,9.13,3.43,16.96l-5.94.65Z"/>
      <path class="cls-1" d="M1350.84,588.07v-3.43c12.27-1.06,13.98-2.12,11.35-6.93-2.77-4.73-6.33-10.68-10.55-17.53h-42.35c-3.3,5.46-5.94,10.11-8.44,14.84-4.22,7.26-2.64,8.64,12.27,9.62v3.43h-43.54v-3.43c12.8-1.22,15.57-2.04,22.56-12.64l41.43-62.22,6.86-1.06c12.67,21.12,25.33,42.32,38.39,63.28,6.33,10.52,9.1,11.82,21.9,12.64v3.43h-49.87ZM1331.45,525.11h-.4c-6.33,9.87-12.53,20.06-18.47,29.68h36.15l-17.28-29.68Z"/>
      <path class="cls-1" d="M1479.73,529.19c-3.43-7.67-9.5-16.31-26.12-16.31-14.78,0-21.77,6.44-21.77,12.96,0,8.4,9.1,12.48,25.2,17.29,16.76,5.06,34.17,10.68,34.17,23.81s-17.68,22.99-44.59,22.99c-8.18,0-14.78-.9-19.79-1.96-5.01-.98-7.78-1.96-9.76-2.53-1.32-2.36-4.22-13.21-5.41-19l5.94-1.06c3.3,7.58,12.93,20.06,33.11,20.06,14.38,0,22.82-5.46,22.82-14.02s-10.55-12.72-25.59-17.61c-13.72-4.24-32.59-10.19-32.59-23.32,0-11.91,15.57-21.77,41.29-21.77,9.37,0,18.21,1.39,25.59,2.85.79,4.24,1.72,9.13,3.43,16.96l-5.94.65Z"/>
    </g>
  </g>
  <g id="Layer_3" data-name="Layer 3">
    <g>
      <path class="cls-1" d="M511.2,658.6v-2.41c7.74-.75,8.82-1.49,7.15-4.89-1.75-3.33-3.99-7.53-6.65-12.36h-26.7c-2.08,3.85-3.74,7.13-5.32,10.46-2.66,5.12-1.66,6.09,7.74,6.78v2.41h-27.45v-2.41c8.07-.86,9.81-1.44,14.22-8.91l26.12-43.87,4.33-.75c7.98,14.89,15.97,29.84,24.2,44.62,3.99,7.42,5.74,8.34,13.81,8.91v2.41h-31.44ZM498.97,614.22h-.25c-3.99,6.96-7.9,14.14-11.64,20.93h22.79l-10.9-20.93Z"/>
      <path class="cls-1" d="M592.21,629.22c12.73,1.15,22.46,4.83,22.46,13.28,0,5.63-4.49,10-11.81,12.76-6.4,2.36-14.89,3.33-24.79,3.33h-28.61v-2.41c10.65-.52,11.48-1.09,11.48-8.16v-33.4c0-7.19-.58-7.7-10.4-8.16v-2.53h32.94c9.48,0,14.89.98,19.05,2.93,4.33,2.01,6.99,5.69,6.99,9.6,0,7.99-10.06,11.27-17.3,12.48v.29ZM577.9,628.13c13.47,0,19.13-3.62,19.13-10.58,0-6.04-4.91-10.81-16.22-10.81-2.99,0-5.82.46-6.9,1.03-1.08.52-1.41,1.49-1.41,4.08v16.27h5.41ZM572.49,647.79c0,6.27,2.41,7.88,10.23,7.82,9.73-.11,18.55-3.56,18.55-12.25s-8.48-12.3-23.62-12.3h-5.16v16.73Z"/>
      <path class="cls-1" d="M670.97,602.66c21.87,0,41.67,11.04,41.67,27.88,0,18.17-19.71,29.38-43.33,29.38s-42-11.9-42-28.11c0-15.24,16.55-29.15,43.58-29.15h.08ZM668.23,605.82c-13.97,0-27.28,7.88-27.28,23.8s13.22,27.14,31.11,27.14c13.97,0,26.78-7.7,26.78-23.98,0-17.65-14.14-26.96-30.53-26.96h-.08Z"/>
      <path class="cls-1" d="M809.12,635.55c-7.4.8-7.82,1.21-7.82,6.32v7.01c0,2.93.08,5.63.83,7.76-7.9,1.26-18.55,3.28-28.94,3.28-28.28,0-47.24-11.56-47.24-28.29,0-19.32,23.62-28.98,48.91-28.98,10.81,0,20.88,1.9,25.12,2.53.33,2.93.91,7.59,1.91,13.57l-3.66.57c-2.99-10.46-12.81-13.57-25.29-13.57-19.05,0-33.19,9.43-33.19,24.78,0,12.13,10.65,26.28,35.02,26.28,4.08,0,8.07-.57,10.73-1.49,2.66-.98,4.16-2.18,4.16-5.4v-6.9c0-6.21-.75-6.78-13.39-7.47v-2.41h32.85v2.41Z"/>
      <path class="cls-1" d="M865.84,658.6v-2.41c7.73-.75,8.82-1.49,7.15-4.89-1.75-3.33-3.99-7.53-6.65-12.36h-26.7c-2.08,3.85-3.74,7.13-5.32,10.46-2.66,5.12-1.66,6.09,7.73,6.78v2.41h-27.45v-2.41c8.07-.86,9.81-1.44,14.22-8.91l26.12-43.87,4.33-.75c7.98,14.89,15.97,29.84,24.2,44.62,3.99,7.42,5.74,8.34,13.81,8.91v2.41h-31.44ZM853.62,614.22h-.25c-3.99,6.96-7.9,14.14-11.64,20.93h22.79l-10.9-20.93Z"/>
      <path class="cls-1" d="M941.61,603.92c15.89,0,28.03,2.24,35.77,7.19,6.15,4.08,10.65,10.23,10.65,18.11,0,9.95-5.91,17.48-15.64,22.42-9.56,4.77-22.29,6.96-37.68,6.96h-30.94v-2.41c10.65-.52,11.73-1.03,11.73-8.22v-33.35c0-7.24-1.08-7.59-10.65-8.11v-2.59h36.76ZM927.14,647.22c0,6.67,4.24,8.22,13.39,8.22,23.21,0,34.35-11.67,34.35-24.9,0-8.68-4.91-15.81-14.06-19.78-5.74-2.64-13.22-3.91-22.12-3.91-5.57,0-8.65.57-9.98,1.15-1.16.57-1.58,1.61-1.58,4.89v34.32Z"/>
      <path class="cls-1" d="M1045.08,602.66c21.88,0,41.67,11.04,41.67,27.88,0,18.17-19.71,29.38-43.33,29.38s-42-11.9-42-28.11c0-15.24,16.55-29.15,43.58-29.15h.08ZM1042.33,605.82c-13.97,0-27.28,7.88-27.28,23.8s13.22,27.14,31.11,27.14c13.97,0,26.78-7.7,26.78-23.98,0-17.65-14.14-26.96-30.53-26.96h-.08Z"/>
      <path class="cls-1" d="M1140.23,617.09c-2.16-5.4-5.99-11.5-16.47-11.5-9.32,0-13.72,4.54-13.72,9.14,0,5.92,5.74,8.8,15.89,12.19,10.56,3.56,21.54,7.53,21.54,16.79s-11.14,16.21-28.11,16.21c-5.16,0-9.32-.63-12.48-1.38-3.16-.69-4.91-1.38-6.15-1.78-.83-1.67-2.66-9.31-3.41-13.4l3.74-.75c2.08,5.35,8.15,14.14,20.88,14.14,9.07,0,14.39-3.85,14.39-9.89s-6.65-8.97-16.14-12.42c-8.65-2.99-20.54-7.19-20.54-16.44,0-8.39,9.81-15.35,26.03-15.35,5.9,0,11.48.98,16.14,2.01.5,2.99,1.08,6.44,2.16,11.96l-3.74.46Z"/>
    </g>
  </g>
  <g id="Layer_1" data-name="Layer 1">
    <g>
      <path class="cls-8" d="M302.58,412.95c-3.52,0-6.84-.29-10.35-.86-23.63-1.71-35.74-10.84-49.22-38.22-9.96-20.25-19.53-45.63-28.32-65.6-5.27-11.98-10.35-17.11-25.39-17.11h-8.2v65.03c0,35.08,2.73,38.22,26.17,41.07v11.98h-79.1v-11.98c23.63-2.85,26.37-5.99,26.37-41.07v-165.43c0-35.65-2.54-37.93-25.2-40.22v-12.55h74.8c22.07,0,36.33,3.71,47.46,14.55,11.91,10.84,19.34,29.38,19.34,54.76,0,36.22-16.02,57.9-36.91,70.73,5.08,13.69,16.99,41.07,25.78,60.18,10.55,21.96,16.8,33.66,23.63,43.92,7.42,12.26,13.87,16.83,20.51,19.11l-1.37,11.69ZM194.18,277.19c14.65,0,24.41-3.42,31.84-11.98,11.13-12.55,15.62-28.81,15.62-51.34,0-44.78-20.12-61.32-41.8-61.32-8.79,0-13.48,1.71-15.62,3.99-1.95,2.28-3.12,7.13-3.12,17.97v102.68h13.09Z"/>
      <path class="cls-6" d="M507.38,411.1v-11.98c23.63-3.42,24.8-6.27,24.41-50.2l-.98-167.42h-1.17l-71.48,227.03h-5.86l-65.82-221.33h-.78l-4.3,117.22c-1.17,34.51-1.17,52.2-.59,68.74.59,19.68,7.42,22.53,26.76,25.38v12.55h-68.55v-12.55c16.8-2.28,22.46-8.27,24.8-24.81,1.56-14.55,3.32-32.51,5.66-77.29l4.3-83.85c2.54-54.19.78-56.47-25.39-60.18v-12.55h49.8l66.21,205.07,67.19-205.07h51.17v12.55c-25.59,3.14-27.34,4.56-26.37,45.92l2.73,150.6c.98,43.92,1.76,46.78,27.15,50.2v11.98h-78.91Z"/>
      <path class="cls-7" d="M762.38,204.6c-2.54-16.54-4.49-25.67-8.79-33.94-5.08-11.69-11.33-15.4-33.01-15.4h-21.29c-9.18,0-9.96,1.14-9.96,13.69v97.54h29.3c26.76,0,28.32-3.99,32.03-31.09h8.59v82.14h-8.79c-3.52-29.09-5.08-33.66-31.84-33.66h-29.3v72.73c0,37.08,2.54,39.65,29.3,42.5v11.98h-82.23v-11.98c23.24-2.57,25.78-5.42,25.78-42.5v-162.86c0-36.79-2.54-39.07-25-41.36v-12.55h130.86c.39,15.4,1.76,41.93,3.12,62.75l-8.79,2Z"/>
      <path class="cls-5" d="M1131.37,242.67c-20.31,3.42-24.61,10.84-34.57,31.09-7.81,15.69-15.04,32.8-25.2,54.48,13.67,18.25,38.87,59.04,48.24,84.42l-1.56,3.99c-18.36-1.71-34.57-11.12-38.09-16.54-3.71-5.7-15.82-24.81-25.39-39.36-21.09,39.36-40.04,54.19-60.94,54.19-37.5,0-58.59-39.65-58.59-76.44s17.97-53.62,43.36-79.29c-13.09-17.4-20.9-34.8-20.9-58.18,0-37.36,22.85-66.74,49.02-66.74,24.61,0,44.34,24.53,44.34,58.18,0,17.4-5.66,28.52-12.3,36.51-5.27,6.56-12.5,13.98-23.63,24.81,9.77,11.69,30.27,36.51,49.02,63.6,6.84-14.55,11.91-28.52,17.38-46.49,5.27-18.82,2.73-24.24-17.97-28.24l.2-11.98h67.58v11.98ZM1002.66,384.71c18.36,0,35.94-17.97,44.92-35.65-16.21-25.1-34.57-49.91-61.33-80.15-17.58,17.68-24.22,36.79-24.22,56.47,0,39.36,21.09,59.33,40.43,59.33h.2ZM1003.83,148.84c-13.28,0-23.63,17.4-23.24,41.36,0,21.68,8.79,35.94,26.76,55.33,13.09-13.69,20.7-30.23,20.7-52.77,0-23.96-9.96-43.92-23.83-43.92h-.39Z"/>
      <g>
        <path class="cls-2" d="M1327.26,150.63c4.33.25,10,.49,17,.73,7,.25,14,.37,21,.37,8.16,0,15.96-.12,23.38-.37,7.41-.24,12.71-.37,15.88-.37,20.66,0,36.12,5.36,46.38,16.06,10.25,10.71,15.38,24.46,15.38,41.25,0,8.52-1.75,17.16-5.25,25.92s-8.92,16.55-16.25,23.37c-7.34,6.82-16.84,11.81-28.5,14.97v.73c15.66,1.71,28.08,5.84,37.25,12.41,9.16,6.57,15.75,14.48,19.75,23.73,4,9.25,6,18.86,6,28.84,0,15.33-2.75,28.24-8.25,38.7-5.5,10.47-13.42,18.44-23.75,23.91-10.34,5.48-22.67,8.21-37,8.21-4,0-9.75-.18-17.25-.55s-16.59-.55-27.25-.55c-7.34,0-14.5.06-21.5.18-7,.13-12.67.43-17,.91v-7.3c5.33-.48,9.33-1.46,12-2.92,2.66-1.46,4.46-4.38,5.38-8.76.91-4.38,1.38-10.95,1.38-19.71v-181.08c0-9-.46-15.64-1.38-19.9-.92-4.26-2.75-7.18-5.5-8.76-2.75-1.58-6.71-2.49-11.88-2.74v-7.3ZM1401.26,157.93c-6.5,0-10.71,2.07-12.62,6.21-1.92,4.14-2.88,12.54-2.88,25.19v181.08c0,8.52.46,14.97,1.38,19.35.91,4.38,2.58,7.3,5,8.76,2.41,1.46,6.04,2.19,10.88,2.19,12.16,0,21-5.53,26.5-16.61,5.5-11.07,8.25-26.83,8.25-47.28,0-18.74-3.21-33.22-9.62-43.44-6.42-10.22-17.04-15.33-31.88-15.33h-21.25v-6.21h21.5c7.83,0,13.88-2.74,18.12-8.21s7.16-12.78,8.75-21.9c1.58-9.13,2.38-18.92,2.38-29.39,0-18.01-1.92-31.58-5.75-40.71-3.84-9.13-10.09-13.69-18.75-13.69Z"/>
        <path class="cls-3" d="M1327.26,150.63c4.33.25,10,.49,17,.73,7,.25,14,.37,21,.37,8.16,0,15.96-.12,23.38-.37,7.41-.24,12.71-.37,15.88-.37,20.66,0,36.12,5.36,46.38,16.06,10.25,10.71,15.38,24.46,15.38,41.25,0,8.52-1.75,17.16-5.25,25.92s-8.92,16.55-16.25,23.37c-7.34,6.82-16.84,11.81-28.5,14.97v.73c15.66,1.71,28.08,5.84,37.25,12.41,9.16,6.57,15.75,14.48,19.75,23.73,4,9.25,6,18.86,6,28.84,0,15.33-2.75,28.24-8.25,38.7-5.5,10.47-13.42,18.44-23.75,23.91-10.34,5.48-22.67,8.21-37,8.21-4,0-9.75-.18-17.25-.55s-16.59-.55-27.25-.55c-7.34,0-14.5.06-21.5.18-7,.13-12.67.43-17,.91v-7.3c5.33-.48,9.33-1.46,12-2.92,2.66-1.46,4.46-4.38,5.38-8.76.91-4.38,1.38-10.95,1.38-19.71v-181.08c0-9-.46-15.64-1.38-19.9-.92-4.26-2.75-7.18-5.5-8.76-2.75-1.58-6.71-2.49-11.88-2.74v-7.3ZM1401.26,157.93c-6.5,0-10.71,2.07-12.62,6.21-1.92,4.14-2.88,12.54-2.88,25.19v181.08c0,8.52.46,14.97,1.38,19.35.91,4.38,2.58,7.3,5,8.76,2.41,1.46,6.04,2.19,10.88,2.19,12.16,0,21-5.53,26.5-16.61,5.5-11.07,8.25-26.83,8.25-47.28,0-18.74-3.21-33.22-9.62-43.44-6.42-10.22-17.04-15.33-31.88-15.33h-21.25v-6.21h21.5c7.83,0,13.88-2.74,18.12-8.21s7.16-12.78,8.75-21.9c1.58-9.13,2.38-18.92,2.38-29.39,0-18.01-1.92-31.58-5.75-40.71-3.84-9.13-10.09-13.69-18.75-13.69Z"/>
        <path class="cls-4" d="M1327.26,150.63c4.33.25,10,.49,17,.73,7,.25,14,.37,21,.37,8.16,0,15.96-.12,23.38-.37,7.41-.24,12.71-.37,15.88-.37,20.66,0,36.12,5.36,46.38,16.06,10.25,10.71,15.38,24.46,15.38,41.25,0,8.52-1.75,17.16-5.25,25.92s-8.92,16.55-16.25,23.37c-7.34,6.82-16.84,11.81-28.5,14.97v.73c15.66,1.71,28.08,5.84,37.25,12.41,9.16,6.57,15.75,14.48,19.75,23.73,4,9.25,6,18.86,6,28.84,0,15.33-2.75,28.24-8.25,38.7-5.5,10.47-13.42,18.44-23.75,23.91-10.34,5.48-22.67,8.21-37,8.21-4,0-9.75-.18-17.25-.55s-16.59-.55-27.25-.55c-7.34,0-14.5.06-21.5.18-7,.13-12.67.43-17,.91v-7.3c5.33-.48,9.33-1.46,12-2.92,2.66-1.46,4.46-4.38,5.38-8.76.91-4.38,1.38-10.95,1.38-19.71v-181.08c0-9-.46-15.64-1.38-19.9-.92-4.26-2.75-7.18-5.5-8.76-2.75-1.58-6.71-2.49-11.88-2.74v-7.3ZM1401.26,157.93c-6.5,0-10.71,2.07-12.62,6.21-1.92,4.14-2.88,12.54-2.88,25.19v181.08c0,8.52.46,14.97,1.38,19.35.91,4.38,2.58,7.3,5,8.76,2.41,1.46,6.04,2.19,10.88,2.19,12.16,0,21-5.53,26.5-16.61,5.5-11.07,8.25-26.83,8.25-47.28,0-18.74-3.21-33.22-9.62-43.44-6.42-10.22-17.04-15.33-31.88-15.33h-21.25v-6.21h21.5c7.83,0,13.88-2.74,18.12-8.21s7.16-12.78,8.75-21.9c1.58-9.13,2.38-18.92,2.38-29.39,0-18.01-1.92-31.58-5.75-40.71-3.84-9.13-10.09-13.69-18.75-13.69Z"/>
      </g>
    </g>
  </g>
</svg>