<?xml version="1.0" encoding="UTF-8"?>
<svg xmlns="http://www.w3.org/2000/svg" viewBox="0 0 1403 513.89">
  <defs>
    <style>
      .cls-1 {
        fill: none;
      }

      .cls-1, .cls-2 {
        stroke: #fff;
        stroke-miterlimit: 10;
      }

      .cls-3, .cls-4, .cls-5 {
        stroke-width: 0px;
      }

      .cls-3, .cls-2 {
        fill: #fff;
      }

      .cls-4 {
        fill: #f4f4f4;
      }

      .cls-5 {
        fill: #f2f2f2;
      }
    </style>
  </defs>
  <g id="Layer_1" data-name="Layer 1">
    <g>
      <g>
        <path class="cls-5" d="M184.94,192.58c-3.52,0-6.84-.2-10.35-.59-23.63-1.17-35.74-7.42-49.22-26.17-9.96-13.87-19.53-31.25-28.32-44.92-5.27-8.2-10.35-11.72-25.39-11.72h-8.2v44.53c0,24.02,2.73,26.17,26.17,28.12v8.2H10.53v-8.2c23.63-1.95,26.37-4.1,26.37-28.12V40.43c0-24.41-2.54-25.98-25.2-27.54V4.3h74.8c22.07,0,36.33,2.54,47.46,9.96,11.91,7.42,19.34,20.12,19.34,37.5,0,24.8-16.02,39.65-36.91,48.44,5.08,9.38,16.99,28.12,25.78,41.21,10.55,15.04,16.8,23.05,23.63,30.08,7.42,8.4,13.87,11.52,20.51,13.09l-1.37,8.01ZM76.55,99.61c14.65,0,24.41-2.34,31.84-8.2,11.13-8.59,15.62-19.73,15.62-35.16,0-30.66-20.12-41.99-41.8-41.99-8.79,0-13.48,1.17-15.62,2.73-1.95,1.56-3.12,4.88-3.12,12.3v70.31h13.09Z"/>
        <path class="cls-5" d="M389.75,190.04v-8.2c23.63-2.34,24.8-4.3,24.41-34.38l-.98-114.65h-1.17l-71.48,155.47h-5.86l-65.82-151.56h-.78l-4.3,80.27c-1.17,23.63-1.17,35.74-.59,47.07.59,13.48,7.42,15.43,26.76,17.38v8.59h-68.55v-8.59c16.8-1.56,22.46-5.66,24.8-16.99,1.56-9.96,3.32-22.27,5.66-52.93l4.3-57.42c2.54-37.11.78-38.67-25.39-41.21V4.3h49.8l66.21,140.43L413.97,4.3h51.17v8.59c-25.59,2.15-27.34,3.12-26.37,31.45l2.73,103.12c.98,30.08,1.76,32.03,27.15,34.38v8.2h-78.91Z"/>
        <path class="cls-5" d="M644.75,48.63c-2.54-11.33-4.49-17.58-8.79-23.24-5.08-8.01-11.33-10.55-33.01-10.55h-21.29c-9.18,0-9.96.78-9.96,9.38v66.8h29.3c26.76,0,28.32-2.73,32.03-21.29h8.59v56.25h-8.79c-3.52-19.92-5.08-23.05-31.84-23.05h-29.3v49.8c0,25.39,2.54,27.15,29.3,29.1v8.2h-82.23v-8.2c23.24-1.76,25.78-3.71,25.78-29.1V41.21c0-25.2-2.54-26.76-25-28.32V4.3h130.86c.39,10.55,1.76,28.71,3.12,42.97l-8.79,1.37Z"/>
        <path class="cls-5" d="M1013.73,75.98c-20.31,2.34-24.61,7.42-34.57,21.29-7.81,10.74-15.04,22.46-25.2,37.3,13.67,12.5,38.87,40.43,48.24,57.81l-1.56,2.73c-18.36-1.17-34.57-7.62-38.09-11.33-3.71-3.91-15.82-16.99-25.39-26.95-21.09,26.95-40.04,37.11-60.94,37.11-37.5,0-58.59-27.15-58.59-52.34s17.97-36.72,43.36-54.3c-13.09-11.91-20.9-23.83-20.9-39.84,0-25.59,22.85-45.7,49.02-45.7,24.61,0,44.34,16.8,44.34,39.84,0,11.91-5.66,19.53-12.3,25-5.27,4.49-12.5,9.57-23.63,16.99,9.77,8.01,30.27,25,49.02,43.55,6.84-9.96,11.91-19.53,17.38-31.84,5.27-12.89,2.73-16.6-17.97-19.34l.2-8.2h67.58v8.2ZM885.02,173.24c18.36,0,35.94-12.3,44.92-24.41-16.21-17.19-34.57-34.18-61.33-54.88-17.58,12.11-24.22,25.2-24.22,38.67,0,26.95,21.09,40.62,40.43,40.62h.2ZM886.19,11.72c-13.28,0-23.63,11.91-23.24,28.32,0,14.84,8.79,24.61,26.76,37.89,13.09-9.38,20.7-20.7,20.7-36.13,0-16.41-9.96-30.08-23.83-30.08h-.39Z"/>
        <path class="cls-5" d="M1275.88,190.04v-8.2c18.16-2.54,20.7-5.08,16.8-16.6-4.1-11.33-9.38-25.59-15.62-41.99h-62.7c-4.88,13.09-8.79,24.22-12.5,35.55-6.25,17.38-3.91,20.7,18.16,23.05v8.2h-64.45v-8.2c18.95-2.93,23.05-4.88,33.4-30.27L1250.3,2.54l10.16-2.54c18.75,50.59,37.5,101.37,56.84,151.56,9.38,25.2,13.48,28.32,32.42,30.27v8.2h-73.83ZM1247.17,39.26h-.59c-9.38,23.63-18.55,48.05-27.34,71.09h53.52l-25.59-71.09Z"/>
      </g>
      <g>
        <path class="cls-3" d="M184.94,192.58c-3.52,0-6.84-.2-10.35-.59-23.63-1.17-35.74-7.42-49.22-26.17-9.96-13.87-19.53-31.25-28.32-44.92-5.27-8.2-10.35-11.72-25.39-11.72h-8.2v44.53c0,24.02,2.73,26.17,26.17,28.12v8.2H10.53v-8.2c23.63-1.95,26.37-4.1,26.37-28.12V40.43c0-24.41-2.54-25.98-25.2-27.54V4.3h74.8c22.07,0,36.33,2.54,47.46,9.96,11.91,7.42,19.34,20.12,19.34,37.5,0,24.8-16.02,39.65-36.91,48.44,5.08,9.38,16.99,28.12,25.78,41.21,10.55,15.04,16.8,23.05,23.63,30.08,7.42,8.4,13.87,11.52,20.51,13.09l-1.37,8.01ZM76.55,99.61c14.65,0,24.41-2.34,31.84-8.2,11.13-8.59,15.62-19.73,15.62-35.16,0-30.66-20.12-41.99-41.8-41.99-8.79,0-13.48,1.17-15.62,2.73-1.95,1.56-3.12,4.88-3.12,12.3v70.31h13.09Z"/>
        <path class="cls-3" d="M389.75,190.04v-8.2c23.63-2.34,24.8-4.3,24.41-34.38l-.98-114.65h-1.17l-71.48,155.47h-5.86l-65.82-151.56h-.78l-4.3,80.27c-1.17,23.63-1.17,35.74-.59,47.07.59,13.48,7.42,15.43,26.76,17.38v8.59h-68.55v-8.59c16.8-1.56,22.46-5.66,24.8-16.99,1.56-9.96,3.32-22.27,5.66-52.93l4.3-57.42c2.54-37.11.78-38.67-25.39-41.21V4.3h49.8l66.21,140.43L413.97,4.3h51.17v8.59c-25.59,2.15-27.34,3.12-26.37,31.45l2.73,103.12c.98,30.08,1.76,32.03,27.15,34.38v8.2h-78.91Z"/>
        <path class="cls-3" d="M644.75,48.63c-2.54-11.33-4.49-17.58-8.79-23.24-5.08-8.01-11.33-10.55-33.01-10.55h-21.29c-9.18,0-9.96.78-9.96,9.38v66.8h29.3c26.76,0,28.32-2.73,32.03-21.29h8.59v56.25h-8.79c-3.52-19.92-5.08-23.05-31.84-23.05h-29.3v49.8c0,25.39,2.54,27.15,29.3,29.1v8.2h-82.23v-8.2c23.24-1.76,25.78-3.71,25.78-29.1V41.21c0-25.2-2.54-26.76-25-28.32V4.3h130.86c.39,10.55,1.76,28.71,3.12,42.97l-8.79,1.37Z"/>
        <path class="cls-3" d="M1013.73,75.98c-20.31,2.34-24.61,7.42-34.57,21.29-7.81,10.74-15.04,22.46-25.2,37.3,13.67,12.5,38.87,40.43,48.24,57.81l-1.56,2.73c-18.36-1.17-34.57-7.62-38.09-11.33-3.71-3.91-15.82-16.99-25.39-26.95-21.09,26.95-40.04,37.11-60.94,37.11-37.5,0-58.59-27.15-58.59-52.34s17.97-36.72,43.36-54.3c-13.09-11.91-20.9-23.83-20.9-39.84,0-25.59,22.85-45.7,49.02-45.7,24.61,0,44.34,16.8,44.34,39.84,0,11.91-5.66,19.53-12.3,25-5.27,4.49-12.5,9.57-23.63,16.99,9.77,8.01,30.27,25,49.02,43.55,6.84-9.96,11.91-19.53,17.38-31.84,5.27-12.89,2.73-16.6-17.97-19.34l.2-8.2h67.58v8.2ZM885.02,173.24c18.36,0,35.94-12.3,44.92-24.41-16.21-17.19-34.57-34.18-61.33-54.88-17.58,12.11-24.22,25.2-24.22,38.67,0,26.95,21.09,40.62,40.43,40.62h.2ZM886.19,11.72c-13.28,0-23.63,11.91-23.24,28.32,0,14.84,8.79,24.61,26.76,37.89,13.09-9.38,20.7-20.7,20.7-36.13,0-16.41-9.96-30.08-23.83-30.08h-.39Z"/>
        <path class="cls-3" d="M1275.88,190.04v-8.2c18.16-2.54,20.7-5.08,16.8-16.6-4.1-11.33-9.38-25.59-15.62-41.99h-62.7c-4.88,13.09-8.79,24.22-12.5,35.55-6.25,17.38-3.91,20.7,18.16,23.05v8.2h-64.45v-8.2c18.95-2.93,23.05-4.88,33.4-30.27L1250.3,2.54l10.16-2.54c18.75,50.59,37.5,101.37,56.84,151.56,9.38,25.2,13.48,28.32,32.42,30.27v8.2h-73.83ZM1247.17,39.26h-.59c-9.38,23.63-18.55,48.05-27.34,71.09h53.52l-25.59-71.09Z"/>
      </g>
      <g>
        <path class="cls-1" d="M184.94,192.58c-3.52,0-6.84-.2-10.35-.59-23.63-1.17-35.74-7.42-49.22-26.17-9.96-13.87-19.53-31.25-28.32-44.92-5.27-8.2-10.35-11.72-25.39-11.72h-8.2v44.53c0,24.02,2.73,26.17,26.17,28.12v8.2H10.53v-8.2c23.63-1.95,26.37-4.1,26.37-28.12V40.43c0-24.41-2.54-25.98-25.2-27.54V4.3h74.8c22.07,0,36.33,2.54,47.46,9.96,11.91,7.42,19.34,20.12,19.34,37.5,0,24.8-16.02,39.65-36.91,48.44,5.08,9.38,16.99,28.12,25.78,41.21,10.55,15.04,16.8,23.05,23.63,30.08,7.42,8.4,13.87,11.52,20.51,13.09l-1.37,8.01ZM76.55,99.61c14.65,0,24.41-2.34,31.84-8.2,11.13-8.59,15.62-19.73,15.62-35.16,0-30.66-20.12-41.99-41.8-41.99-8.79,0-13.48,1.17-15.62,2.73-1.95,1.56-3.12,4.88-3.12,12.3v70.31h13.09Z"/>
        <path class="cls-1" d="M389.75,190.04v-8.2c23.63-2.34,24.8-4.3,24.41-34.38l-.98-114.65h-1.17l-71.48,155.47h-5.86l-65.82-151.56h-.78l-4.3,80.27c-1.17,23.63-1.17,35.74-.59,47.07.59,13.48,7.42,15.43,26.76,17.38v8.59h-68.55v-8.59c16.8-1.56,22.46-5.66,24.8-16.99,1.56-9.96,3.32-22.27,5.66-52.93l4.3-57.42c2.54-37.11.78-38.67-25.39-41.21V4.3h49.8l66.21,140.43L413.97,4.3h51.17v8.59c-25.59,2.15-27.34,3.12-26.37,31.45l2.73,103.12c.98,30.08,1.76,32.03,27.15,34.38v8.2h-78.91Z"/>
        <path class="cls-1" d="M644.75,48.63c-2.54-11.33-4.49-17.58-8.79-23.24-5.08-8.01-11.33-10.55-33.01-10.55h-21.29c-9.18,0-9.96.78-9.96,9.38v66.8h29.3c26.76,0,28.32-2.73,32.03-21.29h8.59v56.25h-8.79c-3.52-19.92-5.08-23.05-31.84-23.05h-29.3v49.8c0,25.39,2.54,27.15,29.3,29.1v8.2h-82.23v-8.2c23.24-1.76,25.78-3.71,25.78-29.1V41.21c0-25.2-2.54-26.76-25-28.32V4.3h130.86c.39,10.55,1.76,28.71,3.12,42.97l-8.79,1.37Z"/>
        <path class="cls-1" d="M1013.73,75.98c-20.31,2.34-24.61,7.42-34.57,21.29-7.81,10.74-15.04,22.46-25.2,37.3,13.67,12.5,38.87,40.43,48.24,57.81l-1.56,2.73c-18.36-1.17-34.57-7.62-38.09-11.33-3.71-3.91-15.82-16.99-25.39-26.95-21.09,26.95-40.04,37.11-60.94,37.11-37.5,0-58.59-27.15-58.59-52.34s17.97-36.72,43.36-54.3c-13.09-11.91-20.9-23.83-20.9-39.84,0-25.59,22.85-45.7,49.02-45.7,24.61,0,44.34,16.8,44.34,39.84,0,11.91-5.66,19.53-12.3,25-5.27,4.49-12.5,9.57-23.63,16.99,9.77,8.01,30.27,25,49.02,43.55,6.84-9.96,11.91-19.53,17.38-31.84,5.27-12.89,2.73-16.6-17.97-19.34l.2-8.2h67.58v8.2ZM885.02,173.24c18.36,0,35.94-12.3,44.92-24.41-16.21-17.19-34.57-34.18-61.33-54.88-17.58,12.11-24.22,25.2-24.22,38.67,0,26.95,21.09,40.62,40.43,40.62h.2ZM886.19,11.72c-13.28,0-23.63,11.91-23.24,28.32,0,14.84,8.79,24.61,26.76,37.89,13.09-9.38,20.7-20.7,20.7-36.13,0-16.41-9.96-30.08-23.83-30.08h-.39Z"/>
        <path class="cls-1" d="M1275.88,190.04v-8.2c18.16-2.54,20.7-5.08,16.8-16.6-4.1-11.33-9.38-25.59-15.62-41.99h-62.7c-4.88,13.09-8.79,24.22-12.5,35.55-6.25,17.38-3.91,20.7,18.16,23.05v8.2h-64.45v-8.2c18.95-2.93,23.05-4.88,33.4-30.27L1250.3,2.54l10.16-2.54c18.75,50.59,37.5,101.37,56.84,151.56,9.38,25.2,13.48,28.32,32.42,30.27v8.2h-73.83ZM1247.17,39.26h-.59c-9.38,23.63-18.55,48.05-27.34,71.09h53.52l-25.59-71.09Z"/>
      </g>
    </g>
  </g>
  <g id="Layer_2" data-name="Layer 2">
    <g>
      <path class="cls-2" d="M235.07,291.13v-3.16c16.09-.9,16.89-1.65,16.62-13.24l-.67-44.15h-.8l-48.66,59.87h-3.99l-44.81-58.36h-.53l-2.93,30.91c-.8,9.1-.8,13.76-.4,18.13.4,5.19,5.05,5.94,18.22,6.69v3.31h-46.67v-3.31c11.43-.6,15.29-2.18,16.89-6.54,1.06-3.84,2.26-8.57,3.86-20.38l2.93-22.11c1.73-14.29.53-14.89-17.28-15.87v-3.31h33.9l45.07,54.08,45.74-54.08h34.84v3.31c-17.42.83-18.61,1.2-17.95,12.11l1.86,39.71c.66,11.58,1.2,12.33,18.48,13.24v3.16h-53.72Z"/>
      <path class="cls-2" d="M360.98,292.41c-3.72,0-7.98-.98-10.11-2.18-2.66-1.43-3.86-2.93-4.79-4.66-7.98,2.86-17.28,6.84-22.87,6.84-14.76,0-24.46-6.62-24.46-13.54,0-5.49,5.32-8.8,16.09-10.76,12.63-2.26,26.33-5.11,30.58-7.15v-1.96c0-7.9-6.38-12.11-15.82-12.11-3.46,0-6.38.75-8.38,1.96-2.53,1.43-4.25,3.91-5.98,7.45-1.2,1.96-3.32,2.71-6.38,2.71-3.86,0-9.04-2.26-9.04-4.89,0-1.65,2.53-3.01,6.38-4.51,5.72-2.33,19.15-6.54,30.18-7.75,6.25,0,11.97.83,16.49,2.78,7.31,3.46,9.44,8.05,9.44,13.91v19.78c0,4.89,3.46,6.54,7.05,6.54,2.26,0,4.92-.53,7.05-1.2l1.99,2.93-17.42,5.79ZM345.42,264.81c-3.99,1.13-11.97,3.23-16.09,4.29-7.71,1.88-11.97,4.06-11.97,8.12,0,5.79,7.71,8.35,13.56,8.35,4.65,0,11.04-1.65,14.49-3.61v-17.15Z"/>
      <path class="cls-2" d="M415.36,253.75c6.51-6.02,14.63-11.88,23.8-11.88,7.18,0,11.97,2.93,11.97,5.64,0,2.56-2.66,4.81-6.91,5.94-2.39.53-4.12.3-5.32-.3-3.06-1.58-5.32-2.26-8.64-2.26-5.05,0-11.04,3.23-15.29,9.1v19.63c0,7.22.93,7.9,16.35,8.57v2.93h-47.2v-2.93c11.97-.68,13.69-1.35,13.69-8.57v-22.79c0-6.99-1.06-7.45-12.1-8.35v-2.48c9.84-.9,19.15-2.18,29.25-4.51v12.26h.4Z"/>
      <path class="cls-2" d="M501.11,290.9c-3.59,1.13-6.65,1.5-8.38,1.5-13.16,0-20.48-4.21-20.48-13.09v-31.59h-13.43l-.93-1.28,5.45-3.31h8.91v-7.97l14.49-7.67,2.66.3v15.34h22.07c1.99,1.2,1.33,3.61-1.33,4.59h-20.74v27.75c0,8.87,6.78,10.38,11.7,10.38,4.65,0,9.04-1.05,11.97-1.88l1.73,3.01-13.69,3.91Z"/>
      <path class="cls-2" d="M523.18,291.13v-2.93c12.37-.68,13.69-1.65,13.69-9.33v-21.59c0-7.15-.93-7.82-12.1-8.8v-2.63c10.37-.98,20.48-2.26,29.38-4.21v37.23c0,7.75,1.2,8.5,13.83,9.33v2.93h-44.81ZM536.61,235.62c3.46-4.66,11.43-15.72,12.76-17.6,1.73-.6,14.49-1.35,16.89-1.05l.66,1.05-25.26,19.1-5.05-1.5Z"/>
      <path class="cls-2" d="M633.94,291.13v-2.93c11.3-.68,12.63-1.58,12.63-9.33v-17.9c0-7.67-5.45-12.26-17.55-12.26-7.45,0-14.76,2.63-20.74,5.42v25.42c0,7.52,1.06,7.97,12.5,8.65v2.93h-43.88v-2.93c13.16-.9,14.23-1.43,14.23-8.8v-22.11c0-7.15-1.33-7.6-11.7-8.65v-2.78c9.44-.83,19.68-2.26,28.85-4.36v8.88c3.99-1.65,8.24-3.38,13.3-5.26,5.58-2.03,10.5-3.23,16.35-3.23,15.69,0,25.66,6.24,25.66,17.15v20.53c0,7.52,1.2,7.82,12.63,8.65v2.93h-42.28Z"/>
      <path class="cls-2" d="M759.32,281.35c-12.76,9.1-26.99,11.06-33.37,11.06-24.33,0-38.69-11.06-38.69-23.32,0-7.3,4.65-13.91,12.63-18.8,8.51-5.26,19.28-8.42,29.78-8.42h.13c16.89,0,30.31,8.2,30.31,16.92,0,2.11-1.06,3.08-4.65,3.53-3.59.3-28.32,1.43-51.19,1.88.4,14.21,15.16,20.23,28.85,20.23,8.11,0,15.69-1.73,22.87-5.49l3.32,2.41ZM725.01,246c-8.51,0-17.02,4.29-19.81,13.46,10.5,0,21.01,0,32.04-.23,3.46-.08,4.65-.68,4.65-2.11,0-5.79-6.38-11.13-16.75-11.13h-.13Z"/>
      <path class="cls-2" d="M849.2,276.92c-2.92,4.66-6.12,10.08-9.31,14.21h-66.61l-1.46-1.73c17.02-13.91,32.84-27.6,49.19-42.34h-16.75c-14.23,0-17.42,1.65-23.14,7.9l-2.92,3.23-5.05-1.2c2.53-4.66,5.45-11.51,7.18-16.25h3.99c1.2,1.73,3.99,2.41,11.3,2.41h46.4l1.46,1.65c-16.09,13.99-31.78,27.83-47.87,42.42h18.75c14.89,0,19.41-2.26,27.12-9.1l2.66-2.63,5.05,1.43Z"/>
      <path class="cls-2" d="M997.31,236.68c-1.73-4.36-3.06-6.77-5.98-8.95-3.46-3.08-7.71-4.06-22.47-4.06h-14.49c-6.25,0-6.78.3-6.78,3.61v25.72h19.94c18.21,0,19.28-1.05,21.8-8.2h5.85v21.66h-5.98c-2.39-7.67-3.46-8.88-21.67-8.88h-19.94v19.18c0,9.78,1.73,10.45,19.94,11.21v3.16h-55.98v-3.16c15.82-.68,17.55-1.43,17.55-11.21v-42.95c0-9.7-1.73-10.3-17.02-10.91v-3.31h89.08c.27,4.06,1.2,11.06,2.13,16.55l-5.98.53Z"/>
      <path class="cls-2" d="M1013.4,291.13v-2.93c12.36-.68,13.83-1.35,13.83-9.03v-22.11c0-6.92-.66-7.45-12.36-8.57v-2.63c10.64-.98,20.61-2.26,29.52-4.21v37.53c0,7.6,1.33,8.2,13.96,9.03v2.93h-44.94ZM1023.77,226.6c0-3.53,5.05-6.17,10.9-6.17s10.37,2.63,10.37,6.17c0,3.16-4.52,5.94-10.64,5.94-5.58,0-10.64-2.78-10.64-5.94Z"/>
      <path class="cls-2" d="M1065.65,291.13v-2.93c12.36-.83,14.09-1.43,14.09-8.8v-51.59c0-7.45-1.33-7.67-13.56-8.35v-2.71c10.64-.68,23.4-2.56,30.58-3.84v66.49c0,7.45,1.73,8.12,14.63,8.8v2.93h-45.74Z"/>
      <path class="cls-2" d="M1165.77,241.87c25.26,0,43.88,11.06,43.88,24.37,0,17.75-23.93,26.17-44.01,26.17-28.32,0-44.81-12.03-44.81-24.14,0-17.98,26.06-26.4,44.81-26.4h.13ZM1163.24,245.55c-11.43,0-22.07,6.54-22.07,18.95,0,13.91,10.64,24.07,26.59,24.07,11.43,0,21.67-4.36,21.67-19.78,0-13.16-9.31-23.24-25.93-23.24h-.27Z"/>
      <path class="cls-2" d="M1298.73,276.92c-2.92,4.66-6.12,10.08-9.31,14.21h-66.61l-1.46-1.73c17.02-13.91,32.84-27.6,49.19-42.34h-16.75c-14.23,0-17.42,1.65-23.14,7.9l-2.92,3.23-5.05-1.2c2.53-4.66,5.45-11.51,7.18-16.25h3.99c1.2,1.73,3.99,2.41,11.3,2.41h46.4l1.46,1.65c-16.09,13.99-31.78,27.83-47.87,42.42h18.75c14.89,0,19.41-2.26,27.12-9.1l2.66-2.63,5.05,1.43Z"/>
      <path class="cls-2" d="M149.77,332.03c-13.83.9-16.75,2.86-23.53,8.2-5.32,4.14-10.24,8.65-17.15,14.37,9.31,4.81,26.46,15.57,32.84,22.26l-1.06,1.05c-12.5-.45-23.53-2.93-25.93-4.36-2.53-1.5-10.77-6.54-17.28-10.38-14.36,10.38-27.26,14.29-41.48,14.29-25.53,0-39.89-10.45-39.89-20.16s12.23-14.14,29.52-20.91c-8.91-4.59-14.23-9.18-14.23-15.34,0-9.85,15.56-17.6,33.37-17.6,16.75,0,30.18,6.47,30.18,15.34,0,4.59-3.86,7.52-8.38,9.63-3.59,1.73-8.51,3.69-16.09,6.54,6.65,3.08,20.61,9.63,33.37,16.77,4.65-3.84,8.11-7.52,11.83-12.26,3.59-4.96,1.86-6.39-12.23-7.45l.13-3.16h46v3.16ZM62.15,369.49c12.5,0,24.46-4.74,30.58-9.4-11.04-6.62-23.53-13.16-41.75-21.13-11.97,4.66-16.49,9.7-16.49,14.89,0,10.38,14.36,15.64,27.52,15.64h.13ZM62.95,307.29c-9.04,0-16.09,4.59-15.82,10.91,0,5.72,5.98,9.48,18.22,14.59,8.91-3.61,14.09-7.97,14.09-13.91,0-6.32-6.78-11.58-16.22-11.58h-.27Z"/>
      <path class="cls-2" d="M287.38,375.96v-3.16c12.37-.98,14.09-1.96,11.43-6.39-2.79-4.36-6.38-9.85-10.64-16.17h-42.68c-3.32,5.04-5.98,9.33-8.51,13.69-4.25,6.69-2.66,7.97,12.37,8.88v3.16h-43.88v-3.16c12.9-1.13,15.69-1.88,22.74-11.66l41.75-57.39,6.91-.98c12.76,19.48,25.53,39.03,38.69,58.36,6.38,9.7,9.17,10.91,22.07,11.66v3.16h-50.26ZM267.84,317.9h-.4c-6.38,9.1-12.63,18.5-18.61,27.38h36.43l-17.42-27.38Z"/>
      <path class="cls-2" d="M396.81,341.36c-3.86-6.47-10.77-11.06-20.48-11.06-7.18,0-12.23,3.01-12.23,7.29,0,4.51,7.45,7.15,16.35,9.1,15.02,3.38,25.26,7.37,25.26,15.12,0,10.3-16.75,15.42-33.11,15.42-10.24,0-19.54-2.03-22.87-3.61-1.33-1.43-3.19-9.18-3.46-13.54l5.45-.45c3.72,7.37,12.63,13.91,24.33,13.91,7.18,0,13.56-3.08,13.56-7.45s-5.19-6.99-15.29-9.55c-11.43-2.93-25.13-6.69-25.13-15.42,0-7.82,11.97-14.44,30.58-14.44,8.51,0,13.83.98,17.82,1.96,1.73,2.41,4.12,9.18,4.52,11.81l-5.32.9Z"/>
      <path class="cls-2" d="M464.88,326.69c25.26,0,43.88,11.06,43.88,24.37,0,17.75-23.93,26.17-44.01,26.17-28.32,0-44.81-12.03-44.81-24.14,0-17.97,26.06-26.4,44.81-26.4h.13ZM462.36,330.38c-11.43,0-22.07,6.54-22.07,18.95,0,13.91,10.64,24.07,26.59,24.07,11.43,0,21.67-4.36,21.67-19.78,0-13.16-9.31-23.24-25.93-23.24h-.27Z"/>
      <path class="cls-2" d="M599.57,365.8c-8.91,6.54-22.34,11.43-33.9,11.43-25.79,0-40.69-11.28-40.69-22.94,0-8.35,6.78-15.79,20.08-21.36,10.9-4.51,22.87-6.24,30.45-6.24h.27c8.11,0,14.63,1.35,17.82,2.93,2.66,1.2,3.19,2.18,3.19,3.38,0,2.56-4.39,5.04-6.91,5.04-1.2,0-2.13-.3-3.86-1.28-6.38-3.23-13.16-4.74-20.21-4.74-12.23,0-23.4,5.57-23.4,17.22,0,15.12,19.41,20.01,30.05,20.01,8.24,0,14.89-1.28,23.8-5.94l3.32,2.48Z"/>
      <path class="cls-2" d="M608.34,375.96v-2.93c12.37-.68,13.83-1.35,13.83-9.02v-22.11c0-6.92-.67-7.45-12.37-8.57v-2.63c10.64-.98,20.61-2.26,29.52-4.21v37.53c0,7.6,1.33,8.2,13.96,9.02v2.93h-44.94ZM618.71,311.43c0-3.54,5.05-6.17,10.9-6.17s10.37,2.63,10.37,6.17c0,3.16-4.52,5.94-10.64,5.94-5.58,0-10.64-2.78-10.64-5.94Z"/>
      <path class="cls-2" d="M726.54,377.24c-3.72,0-7.98-.98-10.11-2.18-2.66-1.43-3.86-2.93-4.79-4.66-7.98,2.86-17.28,6.84-22.87,6.84-14.76,0-24.46-6.62-24.46-13.54,0-5.49,5.32-8.8,16.09-10.75,12.63-2.26,26.33-5.11,30.58-7.14v-1.96c0-7.9-6.38-12.11-15.82-12.11-3.46,0-6.38.75-8.38,1.96-2.53,1.43-4.25,3.91-5.98,7.45-1.2,1.96-3.32,2.71-6.38,2.71-3.86,0-9.04-2.26-9.04-4.89,0-1.65,2.53-3.01,6.38-4.51,5.72-2.33,19.15-6.54,30.18-7.75,6.25,0,11.97.83,16.49,2.78,7.31,3.46,9.44,8.05,9.44,13.91v19.78c0,4.89,3.46,6.54,7.05,6.54,2.26,0,4.92-.53,7.05-1.2l1.99,2.93-17.42,5.79ZM710.99,349.63c-3.99,1.13-11.97,3.23-16.09,4.29-7.71,1.88-11.97,4.06-11.97,8.12,0,5.79,7.71,8.35,13.56,8.35,4.65,0,11.04-1.65,14.49-3.61v-17.15Z"/>
      <path class="cls-2" d="M848.86,373.1c-4.25.45-19.68,1.88-32.18,4.14v-7.07l-11.7,3.91c-7.84,2.56-13.03,3.16-15.16,3.16-16.49,0-37.63-7.97-37.63-23.39s24.2-27.15,51.72-27.15c2.79,0,7.98.3,12.76,1.2v-15.49c0-7.15-1.33-7.45-15.29-7.97v-2.86c11.04-.75,24.6-2.41,32.44-3.84v65.21c0,6.02,1.46,6.54,9.44,7l5.58.3v2.86ZM816.69,336.62c-4.79-3.84-12.5-5.72-20.08-5.72-8.38,0-24.86,3.99-24.86,19.93,0,13.16,14.76,19.18,26.99,19.18,6.51,0,13.16-1.66,17.95-3.46v-29.93Z"/>
      <path class="cls-2" d="M902.71,326.69c25.26,0,43.88,11.06,43.88,24.37,0,17.75-23.93,26.17-44.01,26.17-28.32,0-44.81-12.03-44.81-24.14,0-17.97,26.06-26.4,44.81-26.4h.13ZM900.19,330.38c-11.43,0-22.07,6.54-22.07,18.95,0,13.91,10.64,24.07,26.59,24.07,11.43,0,21.67-4.36,21.67-19.78,0-13.16-9.31-23.24-25.93-23.24h-.27Z"/>
      <path class="cls-2" d="M1012.14,341.36c-3.86-6.47-10.77-11.06-20.48-11.06-7.18,0-12.23,3.01-12.23,7.29,0,4.51,7.45,7.15,16.35,9.1,15.03,3.38,25.26,7.37,25.26,15.12,0,10.3-16.75,15.42-33.11,15.42-10.24,0-19.54-2.03-22.87-3.61-1.33-1.43-3.19-9.18-3.46-13.54l5.45-.45c3.72,7.37,12.63,13.91,24.33,13.91,7.18,0,13.56-3.08,13.56-7.45s-5.19-6.99-15.29-9.55c-11.43-2.93-25.13-6.69-25.13-15.42,0-7.82,11.97-14.44,30.58-14.44,8.51,0,13.83.98,17.82,1.96,1.73,2.41,4.12,9.18,4.52,11.81l-5.32.9Z"/>
      <path class="cls-2" d="M1156.26,321.66c-3.46-7.07-9.57-15.04-26.33-15.04-14.89,0-21.94,5.94-21.94,11.96,0,7.75,9.17,11.51,25.39,15.94,16.89,4.66,34.44,9.85,34.44,21.96s-17.82,21.21-44.94,21.21c-8.24,0-14.89-.83-19.94-1.8-5.05-.9-7.84-1.8-9.84-2.33-1.33-2.18-4.25-12.18-5.45-17.52l5.98-.98c3.32,6.99,13.03,18.5,33.37,18.5,14.49,0,23-5.04,23-12.94s-10.64-11.73-25.79-16.25c-13.83-3.91-32.84-9.4-32.84-21.51,0-10.98,15.69-20.08,41.62-20.08,9.44,0,18.35,1.28,25.79,2.63.8,3.91,1.73,8.42,3.46,15.64l-5.98.6Z"/>
      <path class="cls-2" d="M1261.03,375.96v-3.16c12.36-.98,14.09-1.96,11.43-6.39-2.79-4.36-6.38-9.85-10.64-16.17h-42.68c-3.32,5.04-5.98,9.33-8.51,13.69-4.25,6.69-2.66,7.97,12.37,8.88v3.16h-43.88v-3.16c12.9-1.13,15.69-1.88,22.74-11.66l41.75-57.39,6.91-.98c12.76,19.48,25.53,39.03,38.69,58.36,6.38,9.7,9.17,10.91,22.07,11.66v3.16h-50.26ZM1241.49,317.9h-.4c-6.38,9.1-12.63,18.5-18.61,27.38h36.43l-17.42-27.38Z"/>
      <path class="cls-2" d="M1390.93,321.66c-3.46-7.07-9.57-15.04-26.33-15.04-14.89,0-21.94,5.94-21.94,11.96,0,7.75,9.17,11.51,25.39,15.94,16.89,4.66,34.44,9.85,34.44,21.96s-17.82,21.21-44.94,21.21c-8.24,0-14.89-.83-19.94-1.8-5.05-.9-7.84-1.8-9.84-2.33-1.33-2.18-4.25-12.18-5.45-17.52l5.98-.98c3.32,6.99,13.03,18.5,33.37,18.5,14.49,0,23-5.04,23-12.94s-10.64-11.73-25.79-16.25c-13.83-3.91-32.84-9.4-32.84-21.51,0-10.98,15.69-20.08,41.62-20.08,9.44,0,18.35,1.28,25.79,2.63.8,3.91,1.73,8.42,3.46,15.64l-5.98.6Z"/>
    </g>
    <g>
      <path class="cls-4" d="M235.07,291.13v-3.16c16.09-.9,16.89-1.65,16.62-13.24l-.67-44.15h-.8l-48.66,59.87h-3.99l-44.81-58.36h-.53l-2.93,30.91c-.8,9.1-.8,13.76-.4,18.13.4,5.19,5.05,5.94,18.22,6.69v3.31h-46.67v-3.31c11.43-.6,15.29-2.18,16.89-6.54,1.06-3.84,2.26-8.57,3.86-20.38l2.93-22.11c1.73-14.29.53-14.89-17.28-15.87v-3.31h33.9l45.07,54.08,45.74-54.08h34.84v3.31c-17.42.83-18.61,1.2-17.95,12.11l1.86,39.71c.66,11.58,1.2,12.33,18.48,13.24v3.16h-53.72Z"/>
      <path class="cls-4" d="M360.98,292.41c-3.72,0-7.98-.98-10.11-2.18-2.66-1.43-3.86-2.93-4.79-4.66-7.98,2.86-17.28,6.84-22.87,6.84-14.76,0-24.46-6.62-24.46-13.54,0-5.49,5.32-8.8,16.09-10.76,12.63-2.26,26.33-5.11,30.58-7.15v-1.96c0-7.9-6.38-12.11-15.82-12.11-3.46,0-6.38.75-8.38,1.96-2.53,1.43-4.25,3.91-5.98,7.45-1.2,1.96-3.32,2.71-6.38,2.71-3.86,0-9.04-2.26-9.04-4.89,0-1.65,2.53-3.01,6.38-4.51,5.72-2.33,19.15-6.54,30.18-7.75,6.25,0,11.97.83,16.49,2.78,7.31,3.46,9.44,8.05,9.44,13.91v19.78c0,4.89,3.46,6.54,7.05,6.54,2.26,0,4.92-.53,7.05-1.2l1.99,2.93-17.42,5.79ZM345.42,264.81c-3.99,1.13-11.97,3.23-16.09,4.29-7.71,1.88-11.97,4.06-11.97,8.12,0,5.79,7.71,8.35,13.56,8.35,4.65,0,11.04-1.65,14.49-3.61v-17.15Z"/>
      <path class="cls-4" d="M415.36,253.75c6.51-6.02,14.63-11.88,23.8-11.88,7.18,0,11.97,2.93,11.97,5.64,0,2.56-2.66,4.81-6.91,5.94-2.39.53-4.12.3-5.32-.3-3.06-1.58-5.32-2.26-8.64-2.26-5.05,0-11.04,3.23-15.29,9.1v19.63c0,7.22.93,7.9,16.35,8.57v2.93h-47.2v-2.93c11.97-.68,13.69-1.35,13.69-8.57v-22.79c0-6.99-1.06-7.45-12.1-8.35v-2.48c9.84-.9,19.15-2.18,29.25-4.51v12.26h.4Z"/>
      <path class="cls-4" d="M501.11,290.9c-3.59,1.13-6.65,1.5-8.38,1.5-13.16,0-20.48-4.21-20.48-13.09v-31.59h-13.43l-.93-1.28,5.45-3.31h8.91v-7.97l14.49-7.67,2.66.3v15.34h22.07c1.99,1.2,1.33,3.61-1.33,4.59h-20.74v27.75c0,8.87,6.78,10.38,11.7,10.38,4.65,0,9.04-1.05,11.97-1.88l1.73,3.01-13.69,3.91Z"/>
      <path class="cls-4" d="M523.18,291.13v-2.93c12.37-.68,13.69-1.65,13.69-9.33v-21.59c0-7.15-.93-7.82-12.1-8.8v-2.63c10.37-.98,20.48-2.26,29.38-4.21v37.23c0,7.75,1.2,8.5,13.83,9.33v2.93h-44.81ZM536.61,235.62c3.46-4.66,11.43-15.72,12.76-17.6,1.73-.6,14.49-1.35,16.89-1.05l.66,1.05-25.26,19.1-5.05-1.5Z"/>
      <path class="cls-4" d="M633.94,291.13v-2.93c11.3-.68,12.63-1.58,12.63-9.33v-17.9c0-7.67-5.45-12.26-17.55-12.26-7.45,0-14.76,2.63-20.74,5.42v25.42c0,7.52,1.06,7.97,12.5,8.65v2.93h-43.88v-2.93c13.16-.9,14.23-1.43,14.23-8.8v-22.11c0-7.15-1.33-7.6-11.7-8.65v-2.78c9.44-.83,19.68-2.26,28.85-4.36v8.88c3.99-1.65,8.24-3.38,13.3-5.26,5.58-2.03,10.5-3.23,16.35-3.23,15.69,0,25.66,6.24,25.66,17.15v20.53c0,7.52,1.2,7.82,12.63,8.65v2.93h-42.28Z"/>
      <path class="cls-4" d="M759.32,281.35c-12.76,9.1-26.99,11.06-33.37,11.06-24.33,0-38.69-11.06-38.69-23.32,0-7.3,4.65-13.91,12.63-18.8,8.51-5.26,19.28-8.42,29.78-8.42h.13c16.89,0,30.31,8.2,30.31,16.92,0,2.11-1.06,3.08-4.65,3.53-3.59.3-28.32,1.43-51.19,1.88.4,14.21,15.16,20.23,28.85,20.23,8.11,0,15.69-1.73,22.87-5.49l3.32,2.41ZM725.01,246c-8.51,0-17.02,4.29-19.81,13.46,10.5,0,21.01,0,32.04-.23,3.46-.08,4.65-.68,4.65-2.11,0-5.79-6.38-11.13-16.75-11.13h-.13Z"/>
      <path class="cls-4" d="M849.2,276.92c-2.92,4.66-6.12,10.08-9.31,14.21h-66.61l-1.46-1.73c17.02-13.91,32.84-27.6,49.19-42.34h-16.75c-14.23,0-17.42,1.65-23.14,7.9l-2.92,3.23-5.05-1.2c2.53-4.66,5.45-11.51,7.18-16.25h3.99c1.2,1.73,3.99,2.41,11.3,2.41h46.4l1.46,1.65c-16.09,13.99-31.78,27.83-47.87,42.42h18.75c14.89,0,19.41-2.26,27.12-9.1l2.66-2.63,5.05,1.43Z"/>
      <path class="cls-4" d="M997.31,236.68c-1.73-4.36-3.06-6.77-5.98-8.95-3.46-3.08-7.71-4.06-22.47-4.06h-14.49c-6.25,0-6.78.3-6.78,3.61v25.72h19.94c18.21,0,19.28-1.05,21.8-8.2h5.85v21.66h-5.98c-2.39-7.67-3.46-8.88-21.67-8.88h-19.94v19.18c0,9.78,1.73,10.45,19.94,11.21v3.16h-55.98v-3.16c15.82-.68,17.55-1.43,17.55-11.21v-42.95c0-9.7-1.73-10.3-17.02-10.91v-3.31h89.08c.27,4.06,1.2,11.06,2.13,16.55l-5.98.53Z"/>
      <path class="cls-4" d="M1013.4,291.13v-2.93c12.36-.68,13.83-1.35,13.83-9.03v-22.11c0-6.92-.66-7.45-12.36-8.57v-2.63c10.64-.98,20.61-2.26,29.52-4.21v37.53c0,7.6,1.33,8.2,13.96,9.03v2.93h-44.94ZM1023.77,226.6c0-3.53,5.05-6.17,10.9-6.17s10.37,2.63,10.37,6.17c0,3.16-4.52,5.94-10.64,5.94-5.58,0-10.64-2.78-10.64-5.94Z"/>
      <path class="cls-4" d="M1065.65,291.13v-2.93c12.36-.83,14.09-1.43,14.09-8.8v-51.59c0-7.45-1.33-7.67-13.56-8.35v-2.71c10.64-.68,23.4-2.56,30.58-3.84v66.49c0,7.45,1.73,8.12,14.63,8.8v2.93h-45.74Z"/>
      <path class="cls-4" d="M1165.77,241.87c25.26,0,43.88,11.06,43.88,24.37,0,17.75-23.93,26.17-44.01,26.17-28.32,0-44.81-12.03-44.81-24.14,0-17.98,26.06-26.4,44.81-26.4h.13ZM1163.24,245.55c-11.43,0-22.07,6.54-22.07,18.95,0,13.91,10.64,24.07,26.59,24.07,11.43,0,21.67-4.36,21.67-19.78,0-13.16-9.31-23.24-25.93-23.24h-.27Z"/>
      <path class="cls-4" d="M1298.73,276.92c-2.92,4.66-6.12,10.08-9.31,14.21h-66.61l-1.46-1.73c17.02-13.91,32.84-27.6,49.19-42.34h-16.75c-14.23,0-17.42,1.65-23.14,7.9l-2.92,3.23-5.05-1.2c2.53-4.66,5.45-11.51,7.18-16.25h3.99c1.2,1.73,3.99,2.41,11.3,2.41h46.4l1.46,1.65c-16.09,13.99-31.78,27.83-47.87,42.42h18.75c14.89,0,19.41-2.26,27.12-9.1l2.66-2.63,5.05,1.43Z"/>
      <path class="cls-4" d="M149.77,332.03c-13.83.9-16.75,2.86-23.53,8.2-5.32,4.14-10.24,8.65-17.15,14.37,9.31,4.81,26.46,15.57,32.84,22.26l-1.06,1.05c-12.5-.45-23.53-2.93-25.93-4.36-2.53-1.5-10.77-6.54-17.28-10.38-14.36,10.38-27.26,14.29-41.48,14.29-25.53,0-39.89-10.45-39.89-20.16s12.23-14.14,29.52-20.91c-8.91-4.59-14.23-9.18-14.23-15.34,0-9.85,15.56-17.6,33.37-17.6,16.75,0,30.18,6.47,30.18,15.34,0,4.59-3.86,7.52-8.38,9.63-3.59,1.73-8.51,3.69-16.09,6.54,6.65,3.08,20.61,9.63,33.37,16.77,4.65-3.84,8.11-7.52,11.83-12.26,3.59-4.96,1.86-6.39-12.23-7.45l.13-3.16h46v3.16ZM62.15,369.49c12.5,0,24.46-4.74,30.58-9.4-11.04-6.62-23.53-13.16-41.75-21.13-11.97,4.66-16.49,9.7-16.49,14.89,0,10.38,14.36,15.64,27.52,15.64h.13ZM62.95,307.29c-9.04,0-16.09,4.59-15.82,10.91,0,5.72,5.98,9.48,18.22,14.59,8.91-3.61,14.09-7.97,14.09-13.91,0-6.32-6.78-11.58-16.22-11.58h-.27Z"/>
      <path class="cls-4" d="M287.38,375.96v-3.16c12.37-.98,14.09-1.96,11.43-6.39-2.79-4.36-6.38-9.85-10.64-16.17h-42.68c-3.32,5.04-5.98,9.33-8.51,13.69-4.25,6.69-2.66,7.97,12.37,8.88v3.16h-43.88v-3.16c12.9-1.13,15.69-1.88,22.74-11.66l41.75-57.39,6.91-.98c12.76,19.48,25.53,39.03,38.69,58.36,6.38,9.7,9.17,10.91,22.07,11.66v3.16h-50.26ZM267.84,317.9h-.4c-6.38,9.1-12.63,18.5-18.61,27.38h36.43l-17.42-27.38Z"/>
      <path class="cls-4" d="M396.81,341.36c-3.86-6.47-10.77-11.06-20.48-11.06-7.18,0-12.23,3.01-12.23,7.29,0,4.51,7.45,7.15,16.35,9.1,15.02,3.38,25.26,7.37,25.26,15.12,0,10.3-16.75,15.42-33.11,15.42-10.24,0-19.54-2.03-22.87-3.61-1.33-1.43-3.19-9.18-3.46-13.54l5.45-.45c3.72,7.37,12.63,13.91,24.33,13.91,7.18,0,13.56-3.08,13.56-7.45s-5.19-6.99-15.29-9.55c-11.43-2.93-25.13-6.69-25.13-15.42,0-7.82,11.97-14.44,30.58-14.44,8.51,0,13.83.98,17.82,1.96,1.73,2.41,4.12,9.18,4.52,11.81l-5.32.9Z"/>
      <path class="cls-4" d="M464.88,326.69c25.26,0,43.88,11.06,43.88,24.37,0,17.75-23.93,26.17-44.01,26.17-28.32,0-44.81-12.03-44.81-24.14,0-17.97,26.06-26.4,44.81-26.4h.13ZM462.36,330.38c-11.43,0-22.07,6.54-22.07,18.95,0,13.91,10.64,24.07,26.59,24.07,11.43,0,21.67-4.36,21.67-19.78,0-13.16-9.31-23.24-25.93-23.24h-.27Z"/>
      <path class="cls-4" d="M599.57,365.8c-8.91,6.54-22.34,11.43-33.9,11.43-25.79,0-40.69-11.28-40.69-22.94,0-8.35,6.78-15.79,20.08-21.36,10.9-4.51,22.87-6.24,30.45-6.24h.27c8.11,0,14.63,1.35,17.82,2.93,2.66,1.2,3.19,2.18,3.19,3.38,0,2.56-4.39,5.04-6.91,5.04-1.2,0-2.13-.3-3.86-1.28-6.38-3.23-13.16-4.74-20.21-4.74-12.23,0-23.4,5.57-23.4,17.22,0,15.12,19.41,20.01,30.05,20.01,8.24,0,14.89-1.28,23.8-5.94l3.32,2.48Z"/>
      <path class="cls-4" d="M608.34,375.96v-2.93c12.37-.68,13.83-1.35,13.83-9.02v-22.11c0-6.92-.67-7.45-12.37-8.57v-2.63c10.64-.98,20.61-2.26,29.52-4.21v37.53c0,7.6,1.33,8.2,13.96,9.02v2.93h-44.94ZM618.71,311.43c0-3.54,5.05-6.17,10.9-6.17s10.37,2.63,10.37,6.17c0,3.16-4.52,5.94-10.64,5.94-5.58,0-10.64-2.78-10.64-5.94Z"/>
      <path class="cls-4" d="M726.54,377.24c-3.72,0-7.98-.98-10.11-2.18-2.66-1.43-3.86-2.93-4.79-4.66-7.98,2.86-17.28,6.84-22.87,6.84-14.76,0-24.46-6.62-24.46-13.54,0-5.49,5.32-8.8,16.09-10.75,12.63-2.26,26.33-5.11,30.58-7.14v-1.96c0-7.9-6.38-12.11-15.82-12.11-3.46,0-6.38.75-8.38,1.96-2.53,1.43-4.25,3.91-5.98,7.45-1.2,1.96-3.32,2.71-6.38,2.71-3.86,0-9.04-2.26-9.04-4.89,0-1.65,2.53-3.01,6.38-4.51,5.72-2.33,19.15-6.54,30.18-7.75,6.25,0,11.97.83,16.49,2.78,7.31,3.46,9.44,8.05,9.44,13.91v19.78c0,4.89,3.46,6.54,7.05,6.54,2.26,0,4.92-.53,7.05-1.2l1.99,2.93-17.42,5.79ZM710.99,349.63c-3.99,1.13-11.97,3.23-16.09,4.29-7.71,1.88-11.97,4.06-11.97,8.12,0,5.79,7.71,8.35,13.56,8.35,4.65,0,11.04-1.65,14.49-3.61v-17.15Z"/>
      <path class="cls-4" d="M848.86,373.1c-4.25.45-19.68,1.88-32.18,4.14v-7.07l-11.7,3.91c-7.84,2.56-13.03,3.16-15.16,3.16-16.49,0-37.63-7.97-37.63-23.39s24.2-27.15,51.72-27.15c2.79,0,7.98.3,12.76,1.2v-15.49c0-7.15-1.33-7.45-15.29-7.97v-2.86c11.04-.75,24.6-2.41,32.44-3.84v65.21c0,6.02,1.46,6.54,9.44,7l5.58.3v2.86ZM816.69,336.62c-4.79-3.84-12.5-5.72-20.08-5.72-8.38,0-24.86,3.99-24.86,19.93,0,13.16,14.76,19.18,26.99,19.18,6.51,0,13.16-1.66,17.95-3.46v-29.93Z"/>
      <path class="cls-4" d="M902.71,326.69c25.26,0,43.88,11.06,43.88,24.37,0,17.75-23.93,26.17-44.01,26.17-28.32,0-44.81-12.03-44.81-24.14,0-17.97,26.06-26.4,44.81-26.4h.13ZM900.19,330.38c-11.43,0-22.07,6.54-22.07,18.95,0,13.91,10.64,24.07,26.59,24.07,11.43,0,21.67-4.36,21.67-19.78,0-13.16-9.31-23.24-25.93-23.24h-.27Z"/>
      <path class="cls-4" d="M1012.14,341.36c-3.86-6.47-10.77-11.06-20.48-11.06-7.18,0-12.23,3.01-12.23,7.29,0,4.51,7.45,7.15,16.35,9.1,15.03,3.38,25.26,7.37,25.26,15.12,0,10.3-16.75,15.42-33.11,15.42-10.24,0-19.54-2.03-22.87-3.61-1.33-1.43-3.19-9.18-3.46-13.54l5.45-.45c3.72,7.37,12.63,13.91,24.33,13.91,7.18,0,13.56-3.08,13.56-7.45s-5.19-6.99-15.29-9.55c-11.43-2.93-25.13-6.69-25.13-15.42,0-7.82,11.97-14.44,30.58-14.44,8.51,0,13.83.98,17.82,1.96,1.73,2.41,4.12,9.18,4.52,11.81l-5.32.9Z"/>
      <path class="cls-4" d="M1156.26,321.66c-3.46-7.07-9.57-15.04-26.33-15.04-14.89,0-21.94,5.94-21.94,11.96,0,7.75,9.17,11.51,25.39,15.94,16.89,4.66,34.44,9.85,34.44,21.96s-17.82,21.21-44.94,21.21c-8.24,0-14.89-.83-19.94-1.8-5.05-.9-7.84-1.8-9.84-2.33-1.33-2.18-4.25-12.18-5.45-17.52l5.98-.98c3.32,6.99,13.03,18.5,33.37,18.5,14.49,0,23-5.04,23-12.94s-10.64-11.73-25.79-16.25c-13.83-3.91-32.84-9.4-32.84-21.51,0-10.98,15.69-20.08,41.62-20.08,9.44,0,18.35,1.28,25.79,2.63.8,3.91,1.73,8.42,3.46,15.64l-5.98.6Z"/>
      <path class="cls-4" d="M1261.03,375.96v-3.16c12.36-.98,14.09-1.96,11.43-6.39-2.79-4.36-6.38-9.85-10.64-16.17h-42.68c-3.32,5.04-5.98,9.33-8.51,13.69-4.25,6.69-2.66,7.97,12.37,8.88v3.16h-43.88v-3.16c12.9-1.13,15.69-1.88,22.74-11.66l41.75-57.39,6.91-.98c12.76,19.48,25.53,39.03,38.69,58.36,6.38,9.7,9.17,10.91,22.07,11.66v3.16h-50.26ZM1241.49,317.9h-.4c-6.38,9.1-12.63,18.5-18.61,27.38h36.43l-17.42-27.38Z"/>
      <path class="cls-4" d="M1390.93,321.66c-3.46-7.07-9.57-15.04-26.33-15.04-14.89,0-21.94,5.94-21.94,11.96,0,7.75,9.17,11.51,25.39,15.94,16.89,4.66,34.44,9.85,34.44,21.96s-17.82,21.21-44.94,21.21c-8.24,0-14.89-.83-19.94-1.8-5.05-.9-7.84-1.8-9.84-2.33-1.33-2.18-4.25-12.18-5.45-17.52l5.98-.98c3.32,6.99,13.03,18.5,33.37,18.5,14.49,0,23-5.04,23-12.94s-10.64-11.73-25.79-16.25c-13.83-3.91-32.84-9.4-32.84-21.51,0-10.98,15.69-20.08,41.62-20.08,9.44,0,18.35,1.28,25.79,2.63.8,3.91,1.73,8.42,3.46,15.64l-5.98.6Z"/>
    </g>
  </g>
  <g id="Layer_3" data-name="Layer 3">
    <g>
      <path class="cls-2" d="M104.98,511.7v-3.08c15.77-.95,17.98-1.9,14.59-6.23-3.56-4.25-8.14-9.59-13.57-15.75h-54.45c-4.24,4.91-7.63,9.08-10.86,13.33-5.43,6.52-3.39,7.76,15.77,8.64v3.08H.5v-3.08c16.45-1.1,20.01-1.83,29-11.35l53.26-55.88,8.82-.95c16.28,18.97,32.57,38.01,49.36,56.84,8.14,9.45,11.7,10.62,28.16,11.35v3.08h-64.12ZM80.05,455.16h-.51c-8.14,8.86-16.11,18.02-23.75,26.66h46.47l-22.22-26.66Z"/>
      <path class="cls-2" d="M270.18,474.28c25.95,1.46,45.8,6.15,45.8,16.92,0,7.18-9.16,12.74-24.09,16.26-13.06,3-30.36,4.25-50.55,4.25h-58.35v-3.08c21.71-.66,23.41-1.39,23.41-10.4v-42.55c0-9.16-1.19-9.81-21.2-10.4v-3.22h67.17c19.34,0,30.36,1.25,38.84,3.74,8.82,2.56,14.25,7.25,14.25,12.23,0,10.18-20.52,14.36-35.28,15.89v.37ZM241.01,472.88c27.48,0,39.01-4.61,39.01-13.48,0-7.69-10.01-13.77-33.08-13.77-6.11,0-11.87.59-14.08,1.32-2.21.66-2.88,1.9-2.88,5.2v20.73h11.03ZM229.98,497.93c0,7.98,4.92,10.03,20.86,9.96,19.84-.15,37.82-4.54,37.82-15.6s-17.3-15.67-48.17-15.67h-10.52v21.31Z"/>
      <path class="cls-2" d="M430.8,440.44c44.61,0,84.98,14.06,84.98,35.52,0,23.14-40.2,37.43-88.37,37.43s-85.66-15.16-85.66-35.82c0-19.41,33.75-37.13,88.88-37.13h.17ZM425.21,444.47c-28.5,0-55.63,10.03-55.63,30.32s26.97,34.57,63.44,34.57c28.5,0,54.62-9.81,54.62-30.54,0-22.49-28.83-34.35-62.25-34.35h-.17Z"/>
      <path class="cls-2" d="M712.53,482.33c-15.1,1.03-15.94,1.54-15.94,8.06v8.94c0,3.74.17,7.18,1.7,9.89-16.11,1.61-37.82,4.17-59.03,4.17-57.67,0-96.34-14.72-96.34-36.04,0-24.61,48.17-36.91,99.73-36.91,22.05,0,42.57,2.42,51.22,3.22.68,3.74,1.87,9.67,3.9,17.29l-7.46.73c-6.11-13.33-26.12-17.29-51.56-17.29-38.84,0-67.68,12.01-67.68,31.57,0,15.45,21.71,33.47,71.41,33.47,8.31,0,16.45-.73,21.88-1.9,5.43-1.25,8.48-2.78,8.48-6.88v-8.79c0-7.91-1.53-8.64-27.31-9.52v-3.08h67v3.08Z"/>
      <path class="cls-2" d="M828.2,511.7v-3.08c15.77-.95,17.98-1.9,14.59-6.23-3.56-4.25-8.14-9.59-13.57-15.75h-54.45c-4.24,4.91-7.63,9.08-10.86,13.33-5.43,6.52-3.39,7.76,15.77,8.64v3.08h-55.97v-3.08c16.45-1.1,20.01-1.83,29-11.35l53.26-55.88,8.82-.95c16.28,18.97,32.57,38.01,49.36,56.84,8.14,9.45,11.7,10.62,28.16,11.35v3.08h-64.11ZM803.27,455.16h-.51c-8.14,8.86-16.11,18.02-23.75,26.66h46.48l-22.22-26.66Z"/>
      <path class="cls-2" d="M982.72,442.05c32.4,0,57.16,2.86,72.94,9.16,12.55,5.2,21.71,13.04,21.71,23.07,0,12.67-12.04,22.27-31.89,28.56-19.51,6.08-45.46,8.86-76.84,8.86h-63.1v-3.08c21.71-.66,23.92-1.32,23.92-10.47v-42.48c0-9.23-2.2-9.67-21.71-10.33v-3.3h74.97ZM953.2,497.2c0,8.5,8.65,10.47,27.31,10.47,47.32,0,70.05-14.87,70.05-31.71,0-11.06-10.01-20.14-28.66-25.2-11.7-3.37-26.97-4.98-45.12-4.98-11.37,0-17.64.73-20.35,1.46-2.37.73-3.22,2.05-3.22,6.23v43.73Z"/>
      <path class="cls-2" d="M1193.71,440.44c44.61,0,84.98,14.06,84.98,35.52,0,23.14-40.2,37.43-88.37,37.43s-85.66-15.16-85.66-35.82c0-19.41,33.75-37.13,88.88-37.13h.17ZM1188.11,444.47c-28.49,0-55.63,10.03-55.63,30.32s26.97,34.57,63.44,34.57c28.49,0,54.62-9.81,54.62-30.54,0-22.49-28.83-34.35-62.25-34.35h-.17Z"/>
      <path class="cls-2" d="M1387.74,458.82c-4.41-6.88-12.21-14.65-33.58-14.65-19,0-27.99,5.79-27.99,11.65,0,7.54,11.7,11.21,32.4,15.53,21.54,4.54,43.93,9.59,43.93,21.39s-22.73,20.65-57.33,20.65c-10.52,0-19-.81-25.44-1.76-6.45-.88-10.01-1.76-12.55-2.27-1.7-2.12-5.43-11.87-6.95-17.07l7.63-.95c4.24,6.81,16.62,18.02,42.57,18.02,18.49,0,29.34-4.91,29.34-12.6s-13.57-11.43-32.91-15.82c-17.64-3.81-41.9-9.16-41.9-20.95,0-10.69,20.01-19.56,53.09-19.56,12.04,0,23.41,1.25,32.9,2.56,1.02,3.81,2.21,8.2,4.41,15.23l-7.63.59Z"/>
    </g>
  </g>
  <g id="Layer_4" data-name="Layer 4">
    <path class="cls-3" d="M.3,104.98c-1.54,4.46,207.03,41.44,443.38,63.56,201.87,18.89,328.1,30.02,495.55,12.11,39.06-4.18,183.73-19.08,345.58-92.82,51.31-23.38,121.13-54.75,117.56-72.65-4.56-22.89-126.65-11.29-126.68-8.39-.02,2.53,93.23-5.04,96.37,13.42,4.02,23.69-141.97,80.02-269.83,109.99-81.16,19.03-145.61,25.2-189.09,29.26-42.65,3.98-126.09,10.17-264.07,5.04-94.91-3.52-133.91-9.37-368.4-33.29C94.28,112.2,1.09,102.69.3,104.98Z"/>
  </g>
</svg>